<svg xmlns="http://www.w3.org/2000/svg" xmlns:v="https://svgstorm.com"
viewBox = "0 0 499 499"
width="499"
height="499">
<g fill="None" fill-opacity="0.0" stroke="#000000" stroke-opacity="0.00" stroke-width="0.3"><path d="
M 0.00 499.00 
L 499.00 499.00
L 499.00 0.00
L 0.00 0.00
L 0.00 499.00
M 312.00 186.00 
C 310.97 186.21 309.58 186.91 308.00 187.00
C 305.68 187.13 303.32 187.00 301.00 187.00
C 299.54 187.16 297.09 187.94 295.00 188.00
C 284.02 188.31 272.98 188.00 262.00 188.00
C 253.36 188.84 243.34 189.00 234.00 189.00
C 231.67 189.00 229.33 189.00 227.00 189.00
C 225.33 189.00 223.67 189.00 222.00 189.00
C 221.50 189.00 220.50 189.00 220.00 189.00
C 218.48 189.55 217.14 190.26 215.00 190.00
C 214.51 189.94 214.00 190.00 214.00 190.00
C 210.30 191.61 204.51 193.30 200.00 193.00
C 199.50 192.97 199.00 193.00 199.00 193.00
C 193.32 195.97 184.67 198.52 179.25 202.25 C 173.84 205.99 167.19 210.19 163.25 215.25 C 159.31 220.30 153.56 227.65 151.74 232.74 C 149.92 237.84 142.91 252.86 142.01 243.99 C 141.11 235.13 143.19 224.32 144.00 216.00
C 144.00 214.00 144.00 212.00 144.00 210.00
C 144.00 205.00 143.90 200.00 144.00 195.00
C 144.06 192.21 144.07 190.18 145.00 188.00
C 145.00 187.50 145.00 186.50 145.00 186.00
C 145.00 168.92 152.66 153.10 163.00 140.00
C 165.62 136.68 168.73 133.58 172.00 131.00
C 181.57 123.45 197.26 113.15 210.00 114.00
C 210.50 114.03 211.00 114.00 211.00 114.00
C 212.02 112.96 213.38 112.79 215.00 113.00
C 215.49 113.06 216.00 113.00 216.00 113.00
C 219.91 111.29 224.29 111.00 229.00 111.00
C 232.40 110.67 236.92 110.00 241.00 110.00
C 287.00 110.00 333.00 110.00 379.00 110.00
C 377.01 146.74 353.20 187.33 312.00 186.00
M 322.00 236.00 
C 321.42 260.35 294.66 282.48 271.00 281.00
C 252.94 283.18 233.09 283.41 214.00 283.00
C 213.33 294.83 215.33 307.99 213.00 319.00
C 213.00 324.00 213.10 329.00 213.00 334.00
C 212.95 336.66 212.44 338.99 212.00 341.00
C 212.00 342.00 212.00 343.00 212.00 344.00
C 212.00 353.97 208.93 365.89 205.69 374.69 C 202.46 383.50 197.92 390.99 191.25 397.25 C 184.58 403.51 176.35 408.69 168.31 411.31 C 160.26 413.92 143.90 422.56 144.00 410.00 C 144.10 397.44 144.00 385.50 144.00 373.00
C 144.00 365.67 144.00 358.33 144.00 351.00
C 143.01 340.72 143.00 328.98 143.00 318.00
C 143.00 291.38 140.90 262.71 159.75 242.75 C 178.61 222.80 204.37 222.00 231.00 222.00
C 238.01 221.32 246.30 221.00 254.00 221.00
C 264.93 221.00 271.65 221.45 283.00 221.00 C 294.35 220.55 300.32 222.15 313.00 221.00 C 325.68 219.85 324.74 225.27 322.00 236.00 Z"/>
</g>
<g fill="None" fill-opacity="0.0" stroke="#FFFFFF" stroke-opacity="0.01" stroke-width="0.3"><path d="
M 229.00 111.00 
C 229.50 111.00 230.50 111.00 231.00 111.00
C 234.00 111.00 237.00 111.00 240.00 111.00
C 240.50 111.00 241.00 111.00 241.00 111.00
C 241.25 110.75 241.00 110.00 241.00 110.00
C 236.92 110.00 232.40 110.67 229.00 111.00 Z"/>
</g>
<g fill="None" fill-opacity="0.0" stroke="#ECC9E8" stroke-opacity="0.11" stroke-width="0.3"><path d="
M 241.00 111.00 
C 245.67 111.00 250.33 111.00 255.00 111.00
C 258.00 111.00 261.00 111.00 264.00 111.00
C 293.00 111.00 322.00 111.00 351.00 111.00
C 360.00 111.00 369.00 111.00 378.00 111.00
C 377.58 117.22 376.14 123.23 374.00 129.00
C 371.34 137.88 368.54 146.02 364.00 154.00
C 362.70 156.29 361.98 158.10 360.00 160.00
C 359.91 160.48 360.00 161.00 360.00 161.00
C 357.70 167.38 349.53 173.01 344.00 176.00
C 340.92 177.66 337.53 179.22 334.00 180.00
C 331.80 180.81 329.54 181.33 327.00 182.00
C 326.33 182.43 325.75 182.75 325.00 183.00
C 320.74 184.44 315.04 185.11 311.00 186.00
C 311.50 186.00 312.00 186.00 312.00 186.00
C 353.20 187.33 377.01 146.74 379.00 110.00
C 333.00 110.00 287.00 110.00 241.00 110.00
C 241.00 110.00 241.25 110.75 241.00 111.00 Z"/>
</g>
<g fill="None" fill-opacity="0.0" stroke="#D4BDDC" stroke-opacity="0.08" stroke-width="0.3"><path d="
M 216.00 113.00 
C 217.33 113.00 218.67 113.00 220.00 113.00
C 220.50 113.00 221.00 113.00 221.00 113.00
C 223.58 111.52 228.01 111.57 231.00 112.00
C 230.81 111.59 231.00 111.00 231.00 111.00
C 230.50 111.00 229.50 111.00 229.00 111.00
C 224.29 111.00 219.91 111.29 216.00 113.00 Z"/>
</g>
<g fill="None" fill-opacity="0.0" stroke="#845690" stroke-opacity="0.49" stroke-width="0.3"><path d="
M 231.00 112.00 
C 231.12 112.26 231.77 112.95 232.00 113.00
C 235.94 112.69 240.04 113.00 244.00 113.00
C 243.85 112.95 244.00 112.00 244.00 112.00
C 242.42 111.91 240.97 111.17 240.00 111.00
C 237.00 111.00 234.00 111.00 231.00 111.00
C 231.00 111.00 230.81 111.59 231.00 112.00 Z"/>
</g>
<g fill="None" fill-opacity="0.0" stroke="#815689" stroke-opacity="0.31" stroke-width="0.3"><path d="
M 244.00 112.00 
C 247.64 112.21 251.35 112.00 255.00 112.00
C 254.75 111.73 255.00 111.00 255.00 111.00
C 250.33 111.00 245.67 111.00 241.00 111.00
C 241.00 111.00 240.50 111.00 240.00 111.00
C 240.97 111.17 242.42 111.91 244.00 112.00 Z"/>
</g>
<g fill="None" fill-opacity="0.0" stroke="#754179" stroke-opacity="0.49" stroke-width="0.3"><path d="
M 255.00 112.00 
C 256.00 112.00 257.00 112.00 258.00 112.00
C 260.00 112.00 262.00 112.00 264.00 112.00
C 264.10 111.98 264.00 111.00 264.00 111.00
C 261.00 111.00 258.00 111.00 255.00 111.00
C 255.00 111.00 254.75 111.73 255.00 112.00 Z"/>
</g>
<g fill="None" fill-opacity="0.0" stroke="#874180" stroke-opacity="0.67" stroke-width="0.3"><path d="
M 264.00 112.00 
C 286.00 112.00 308.00 112.00 330.00 112.00
C 337.00 112.00 344.00 112.00 351.00 112.00
C 350.96 112.00 351.00 111.00 351.00 111.00
C 322.00 111.00 293.00 111.00 264.00 111.00
C 264.00 111.00 264.10 111.98 264.00 112.00 Z"/>
</g>
<g fill="None" fill-opacity="0.0" stroke="#A86693" stroke-opacity="0.65" stroke-width="0.3"><path d="
M 351.00 112.00 
C 356.40 112.00 369.35 110.86 374.00 112.00 C 378.65 113.14 374.20 126.85 374.00 129.00
C 376.14 123.23 377.58 117.22 378.00 111.00
C 369.00 111.00 360.00 111.00 351.00 111.00
C 351.00 111.00 350.96 112.00 351.00 112.00 Z"/>
</g>
<g fill="None" fill-opacity="0.0" stroke="#76448A" stroke-opacity="0.63" stroke-width="0.3"><path d="
M 221.00 113.00 
C 224.13 115.32 228.40 113.29 232.00 113.00
C 231.77 112.95 231.12 112.26 231.00 112.00
C 228.01 111.57 223.58 111.52 221.00 113.00 Z"/>
</g>
<g fill="None" fill-opacity="0.0" stroke="#7B3988" stroke-opacity="0.83" stroke-width="0.3"><path d="
M 244.00 113.00 
C 245.67 113.00 247.33 113.00 249.00 113.00
C 252.10 113.00 255.64 112.23 258.00 112.00
C 257.00 112.00 256.00 112.00 255.00 112.00
C 251.35 112.00 247.64 112.21 244.00 112.00
C 244.00 112.00 243.85 112.95 244.00 113.00 Z"/>
</g>
<g fill="None" fill-opacity="0.0" stroke="#913693" stroke-opacity="1.00" stroke-width="0.3"><path d="
M 249.00 113.00 
C 248.41 113.15 247.21 114.78 246.00 114.00
C 248.70 115.26 248.45 118.67 246.00 120.00
C 249.11 120.09 247.24 125.91 252.00 124.00
C 248.96 127.11 252.25 127.88 252.00 132.00
C 254.37 130.01 257.34 129.91 255.00 134.00
C 260.34 134.33 263.19 138.85 266.00 142.00
C 258.41 145.22 264.55 159.34 272.00 160.00
C 271.65 163.15 271.54 167.30 276.00 166.00
C 275.41 171.07 283.39 177.74 276.00 179.00
C 280.29 177.87 284.29 181.47 288.00 180.00
C 288.57 182.49 284.17 182.13 285.00 185.00
C 298.56 185.00 312.94 183.56 325.00 183.00
C 325.75 182.75 326.33 182.43 327.00 182.00
C 329.32 180.53 331.18 180.62 334.00 180.00
C 337.53 179.22 340.92 177.66 344.00 176.00
C 349.90 171.99 354.88 165.90 360.00 161.00
C 360.00 161.00 359.91 160.48 360.00 160.00
C 360.10 159.48 360.76 158.47 361.00 158.00
C 359.41 157.34 355.74 159.92 356.00 155.00
C 361.43 150.26 352.17 149.03 350.32 145.68 C 348.47 142.33 346.31 136.55 343.81 134.74 C 341.32 132.94 341.77 127.11 336.77 125.23 C 331.77 123.35 336.64 112.27 330.00 112.00
C 308.00 112.00 286.00 112.00 264.00 112.00
C 262.00 112.00 260.00 112.00 258.00 112.00
C 255.64 112.23 252.10 113.00 249.00 113.00 Z"/>
</g>
<g fill="None" fill-opacity="0.0" stroke="#AF4999" stroke-opacity="0.99" stroke-width="0.3"><path d="
M 361.00 158.00 
C 361.89 156.24 362.94 155.37 364.00 154.00
C 368.54 146.02 371.34 137.88 374.00 129.00
C 374.20 126.85 378.65 113.14 374.00 112.00 C 369.35 110.86 356.40 112.00 351.00 112.00
C 344.00 112.00 337.00 112.00 330.00 112.00
C 336.64 112.27 331.77 123.35 336.77 125.23 C 341.77 127.11 341.32 132.94 343.81 134.74 C 346.31 136.55 348.47 142.33 350.32 145.68 C 352.17 149.03 361.43 150.26 356.00 155.00
C 355.74 159.92 359.41 157.34 361.00 158.00 Z"/>
</g>
<g fill="None" fill-opacity="0.0" stroke="#D9C8E0" stroke-opacity="0.07" stroke-width="0.3"><path d="
M 211.00 114.00 
C 211.50 114.00 212.00 114.00 212.00 114.00
C 212.50 114.00 213.53 114.12 214.00 114.00
C 214.35 113.91 214.74 113.12 215.00 113.00
C 213.38 112.79 212.02 112.96 211.00 114.00 Z"/>
</g>
<g fill="None" fill-opacity="0.0" stroke="#75478C" stroke-opacity="0.65" stroke-width="0.3"><path d="
M 214.00 114.00 
C 216.18 115.03 219.14 116.23 220.00 113.00
C 218.67 113.00 217.33 113.00 216.00 113.00
C 216.00 113.00 215.49 113.06 215.00 113.00
C 214.74 113.12 214.35 113.91 214.00 114.00 Z"/>
</g>
<g fill="None" fill-opacity="0.0" stroke="#753B95" stroke-opacity="1.00" stroke-width="0.3"><path d="
M 214.00 114.00 
C 213.53 114.12 212.50 114.00 212.00 114.00
C 212.24 117.40 209.80 114.94 209.00 115.00
C 207.71 115.38 206.31 115.65 205.00 116.00
C 203.30 116.74 202.01 116.80 201.00 117.00
C 197.42 118.21 193.44 119.39 190.00 121.00
C 186.02 123.49 182.46 127.07 178.00 129.00
C 168.56 136.75 161.91 145.79 169.00 154.00
C 169.53 149.55 172.96 149.73 174.00 154.00
C 172.21 155.13 170.29 154.81 170.00 157.00
C 172.04 159.84 174.13 155.75 175.00 157.00
C 174.17 166.11 182.03 168.54 186.00 174.00
C 179.94 179.06 189.28 188.02 190.00 194.00
C 191.60 193.10 194.10 192.98 196.00 193.00
C 196.50 193.00 197.50 193.00 198.00 193.00
C 198.98 187.43 212.99 188.59 216.00 189.00
C 217.08 188.67 218.86 189.00 220.00 189.00
C 220.50 189.00 221.50 189.00 222.00 189.00
C 223.22 188.63 224.15 187.76 226.00 188.00
C 228.53 187.55 231.92 187.30 235.00 187.00
C 239.29 182.57 253.33 186.90 260.00 186.00 C 266.67 185.10 277.91 185.00 285.00 185.00
C 284.17 182.13 288.57 182.49 288.00 180.00
C 284.29 181.47 280.29 177.87 276.00 179.00
C 283.39 177.74 275.41 171.07 276.00 166.00
C 271.54 167.30 271.65 163.15 272.00 160.00
C 264.55 159.34 258.41 145.22 266.00 142.00
C 263.19 138.85 260.34 134.33 255.00 134.00
C 257.34 129.91 254.37 130.01 252.00 132.00
C 252.25 127.88 248.96 127.11 252.00 124.00
C 247.24 125.91 249.11 120.09 246.00 120.00
C 248.45 118.67 248.70 115.26 246.00 114.00
C 247.21 114.78 248.41 113.15 249.00 113.00
C 247.33 113.00 245.67 113.00 244.00 113.00
C 240.04 113.00 235.94 112.69 232.00 113.00
C 228.40 113.29 224.13 115.32 221.00 113.00
C 221.00 113.00 220.50 113.00 220.00 113.00
C 219.14 116.23 216.18 115.03 214.00 114.00 Z"/>
</g>
<g fill="None" fill-opacity="0.0" stroke="#E1D5EC" stroke-opacity="0.10" stroke-width="0.3"><path d="
M 172.00 131.00 
C 169.11 133.67 165.62 137.16 163.00 140.00
C 152.66 153.10 145.00 168.92 145.00 186.00
C 145.34 185.77 146.00 186.00 146.00 186.00
C 146.00 184.69 145.87 183.30 146.00 182.00
C 146.78 174.02 150.10 166.39 153.00 159.00
C 153.92 156.65 154.73 154.29 156.00 152.00
C 156.91 150.35 158.02 149.34 159.00 148.00
C 160.18 145.84 161.48 143.92 163.00 142.00
C 165.98 138.22 170.66 132.12 175.00 130.00
C 175.40 129.80 176.00 130.00 176.00 130.00
C 179.60 126.24 185.21 123.24 190.00 121.00
C 193.44 119.39 197.42 118.21 201.00 117.00
C 202.40 116.53 203.56 116.38 205.00 116.00
C 206.31 115.65 207.71 115.38 209.00 115.00
C 209.35 114.90 209.74 114.12 210.00 114.00
C 197.26 113.15 181.57 123.45 172.00 131.00 Z"/>
</g>
<g fill="None" fill-opacity="0.0" stroke="#784D90" stroke-opacity="0.56" stroke-width="0.3"><path d="
M 209.00 115.00 
C 209.80 114.94 212.24 117.40 212.00 114.00
C 212.00 114.00 211.50 114.00 211.00 114.00
C 211.00 114.00 210.50 114.03 210.00 114.00
C 209.74 114.12 209.35 114.90 209.00 115.00 Z"/>
</g>
<g fill="None" fill-opacity="0.0" stroke="#7C5893" stroke-opacity="0.48" stroke-width="0.3"><path d="
M 201.00 117.00 
C 202.01 116.80 203.30 116.74 205.00 116.00
C 203.56 116.38 202.40 116.53 201.00 117.00 Z"/>
</g>
<g fill="None" fill-opacity="0.0" stroke="#725289" stroke-opacity="0.59" stroke-width="0.3"><path d="
M 176.00 130.00 
C 176.53 129.51 177.37 129.27 178.00 129.00
C 182.46 127.07 186.02 123.49 190.00 121.00
C 185.21 123.24 179.60 126.24 176.00 130.00 Z"/>
</g>
<g fill="None" fill-opacity="0.0" stroke="#604297" stroke-opacity="0.98" stroke-width="0.3"><path d="
M 176.00 130.00 
C 169.05 136.48 162.14 144.59 157.00 152.00
C 156.19 154.60 154.14 156.86 153.00 159.00
C 150.10 166.39 146.78 174.02 146.00 182.00
C 146.00 183.10 146.12 185.81 146.00 187.00
C 146.00 188.67 146.00 190.33 146.00 192.00
C 146.00 200.35 145.98 209.41 145.00 217.00
C 144.95 219.13 144.16 221.57 144.00 223.00
C 144.00 230.83 143.17 239.99 145.00 247.00
C 146.45 237.91 151.76 230.07 156.00 222.00
C 156.89 219.89 158.25 217.35 161.00 215.00
C 164.01 212.43 166.94 209.42 170.00 207.00
C 174.44 202.29 179.91 197.64 187.00 196.00
C 187.98 195.77 189.74 196.55 190.00 195.00
C 190.08 194.51 190.00 194.00 190.00 194.00
C 189.28 188.02 179.94 179.06 186.00 174.00
C 182.03 168.54 174.17 166.11 175.00 157.00
C 174.13 155.75 172.04 159.84 170.00 157.00
C 170.29 154.81 172.21 155.13 174.00 154.00
C 172.96 149.73 169.53 149.55 169.00 154.00
C 161.91 145.79 168.56 136.75 178.00 129.00
C 177.37 129.27 176.53 129.51 176.00 130.00 Z"/>
</g>
<g fill="None" fill-opacity="0.0" stroke="#756294" stroke-opacity="0.43" stroke-width="0.3"><path d="
M 163.00 142.00 
C 166.78 137.91 171.78 134.60 175.00 130.00
C 170.66 132.12 165.98 138.22 163.00 142.00 Z"/>
</g>
<g fill="None" fill-opacity="0.0" stroke="#604584" stroke-opacity="0.77" stroke-width="0.3"><path d="
M 163.00 142.00 
C 161.48 143.92 160.18 145.84 159.00 148.00
C 158.31 149.27 157.87 150.86 157.00 152.00
C 162.14 144.59 169.05 136.48 176.00 130.00
C 176.00 130.00 175.40 129.80 175.00 130.00
C 171.78 134.60 166.78 137.91 163.00 142.00 Z"/>
</g>
<g fill="None" fill-opacity="0.0" stroke="#FFFFFF" stroke-opacity="0.01" stroke-width="0.3"><path d="
M 163.00 140.00 
C 165.62 137.16 169.11 133.67 172.00 131.00
C 168.73 133.58 165.62 136.68 163.00 140.00 Z"/>
</g>
<g fill="None" fill-opacity="0.0" stroke="#8977A3" stroke-opacity="0.38" stroke-width="0.3"><path d="
M 156.00 152.00 
C 156.12 151.78 157.00 152.00 157.00 152.00
C 157.87 150.86 158.31 149.27 159.00 148.00
C 158.02 149.34 156.91 150.35 156.00 152.00 Z"/>
</g>
<g fill="None" fill-opacity="0.0" stroke="#736192" stroke-opacity="0.58" stroke-width="0.3"><path d="
M 153.00 159.00 
C 154.14 156.86 156.19 154.60 157.00 152.00
C 157.00 152.00 156.12 151.78 156.00 152.00
C 154.73 154.29 153.92 156.65 153.00 159.00 Z"/>
</g>
<g fill="None" fill-opacity="0.0" stroke="#9A5C90" stroke-opacity="0.58" stroke-width="0.3"><path d="
M 361.00 158.00 
C 360.76 158.47 360.10 159.48 360.00 160.00
C 361.98 158.10 362.70 156.29 364.00 154.00
C 362.94 155.37 361.89 156.24 361.00 158.00 Z"/>
</g>
<g fill="None" fill-opacity="0.0" stroke="#B784B1" stroke-opacity="0.35" stroke-width="0.3"><path d="
M 344.00 176.00 
C 349.53 173.01 357.70 167.38 360.00 161.00
C 354.88 165.90 349.90 171.99 344.00 176.00 Z"/>
</g>
<g fill="None" fill-opacity="0.0" stroke="#884D88" stroke-opacity="0.61" stroke-width="0.3"><path d="
M 327.00 182.00 
C 329.54 181.33 331.80 180.81 334.00 180.00
C 331.18 180.62 329.32 180.53 327.00 182.00 Z"/>
</g>
<g fill="None" fill-opacity="0.0" stroke="#574880" stroke-opacity="0.75" stroke-width="0.3"><path d="
M 146.00 186.00 
C 146.00 186.50 146.00 187.00 146.00 187.00
C 146.12 185.81 146.00 183.10 146.00 182.00
C 145.87 183.30 146.00 184.69 146.00 186.00 Z"/>
</g>
<g fill="None" fill-opacity="0.0" stroke="#784385" stroke-opacity="0.66" stroke-width="0.3"><path d="
M 285.00 185.00 
C 277.91 185.00 266.67 185.10 260.00 186.00 C 253.33 186.90 239.29 182.57 235.00 187.00
C 234.75 187.26 235.00 188.00 235.00 188.00
C 236.67 188.00 238.33 188.00 240.00 188.00
C 255.47 186.35 272.79 187.00 289.00 187.00
C 292.08 186.70 296.25 186.00 300.00 186.00
C 302.67 186.00 305.33 186.00 308.00 186.00
C 309.00 186.00 310.00 186.00 311.00 186.00
C 315.04 185.11 320.74 184.44 325.00 183.00
C 312.94 183.56 298.56 185.00 285.00 185.00 Z"/>
</g>
<g fill="None" fill-opacity="0.0" stroke="#8375A0" stroke-opacity="0.36" stroke-width="0.3"><path d="
M 145.00 188.00 
C 145.00 189.33 145.00 190.67 145.00 192.00
C 145.27 191.75 146.00 192.00 146.00 192.00
C 146.00 190.33 146.00 188.67 146.00 187.00
C 146.00 187.00 146.00 186.50 146.00 186.00
C 146.00 186.00 145.34 185.77 145.00 186.00
C 145.00 186.50 145.00 187.50 145.00 188.00 Z"/>
</g>
<g fill="None" fill-opacity="0.0" stroke="#A579AD" stroke-opacity="0.33" stroke-width="0.3"><path d="
M 289.00 187.00 
C 291.00 187.00 293.00 187.00 295.00 187.00
C 296.67 187.00 298.33 187.00 300.00 187.00
C 299.75 186.75 300.00 186.00 300.00 186.00
C 296.25 186.00 292.08 186.70 289.00 187.00 Z"/>
</g>
<g fill="None" fill-opacity="0.0" stroke="#DEBBE1" stroke-opacity="0.11" stroke-width="0.3"><path d="
M 300.00 187.00 
C 300.50 187.00 301.00 187.00 301.00 187.00
C 303.32 187.00 305.68 187.13 308.00 187.00
C 308.07 186.99 308.00 186.00 308.00 186.00
C 305.33 186.00 302.67 186.00 300.00 186.00
C 300.00 186.00 299.75 186.75 300.00 187.00 Z"/>
</g>
<g fill="None" fill-opacity="0.0" stroke="#FFFFFF" stroke-opacity="0.01" stroke-width="0.3"><path d="
M 308.00 187.00 
C 309.58 186.91 310.97 186.21 312.00 186.00
C 312.00 186.00 311.50 186.00 311.00 186.00
C 310.00 186.00 309.00 186.00 308.00 186.00
C 308.00 186.00 308.07 186.99 308.00 187.00 Z"/>
</g>
<g fill="None" fill-opacity="0.0" stroke="#6F4985" stroke-opacity="0.41" stroke-width="0.3"><path d="
M 226.00 188.00 
C 226.49 188.06 227.00 188.00 227.00 188.00
C 229.33 188.00 231.67 188.00 234.00 188.00
C 234.50 188.00 235.00 188.00 235.00 188.00
C 235.00 188.00 234.75 187.26 235.00 187.00
C 231.92 187.30 228.53 187.55 226.00 188.00 Z"/>
</g>
<g fill="None" fill-opacity="0.0" stroke="#D1B5DD" stroke-opacity="0.13" stroke-width="0.3"><path d="
M 240.00 188.00 
C 247.33 188.00 254.67 188.00 262.00 188.00
C 272.98 188.00 284.02 188.31 295.00 188.00
C 295.04 188.00 295.00 187.00 295.00 187.00
C 293.00 187.00 291.00 187.00 289.00 187.00
C 272.79 187.00 255.47 186.35 240.00 188.00 Z"/>
</g>
<g fill="None" fill-opacity="0.0" stroke="#FFFFFF" stroke-opacity="0.01" stroke-width="0.3"><path d="
M 295.00 188.00 
C 297.09 187.94 299.54 187.16 301.00 187.00
C 301.00 187.00 300.50 187.00 300.00 187.00
C 298.33 187.00 296.67 187.00 295.00 187.00
C 295.00 187.00 295.04 188.00 295.00 188.00 Z"/>
</g>
<g fill="None" fill-opacity="0.0" stroke="#FFFFFF" stroke-opacity="0.02" stroke-width="0.3"><path d="
M 144.00 195.00 
C 144.00 194.96 145.00 195.00 145.00 195.00
C 145.00 194.00 145.00 193.00 145.00 192.00
C 145.00 190.67 145.00 189.33 145.00 188.00
C 144.07 190.18 144.06 192.21 144.00 195.00 Z"/>
</g>
<g fill="None" fill-opacity="0.0" stroke="#6D4C8D" stroke-opacity="0.63" stroke-width="0.3"><path d="
M 198.00 193.00 
C 198.50 193.00 199.00 193.00 199.00 193.00
C 199.00 193.00 199.50 192.97 200.00 193.00
C 203.00 190.56 209.88 189.55 214.00 190.00
C 214.00 190.00 214.51 189.94 215.00 190.00
C 215.26 189.88 215.65 189.11 216.00 189.00
C 212.99 188.59 198.98 187.43 198.00 193.00 Z"/>
</g>
<g fill="None" fill-opacity="0.0" stroke="#AE92B6" stroke-opacity="0.13" stroke-width="0.3"><path d="
M 222.00 189.00 
C 223.67 189.00 225.33 189.00 227.00 189.00
C 227.15 188.95 227.00 188.00 227.00 188.00
C 227.00 188.00 226.49 188.06 226.00 188.00
C 224.15 187.76 223.22 188.63 222.00 189.00 Z"/>
</g>
<g fill="None" fill-opacity="0.0" stroke="#F1D2F7" stroke-opacity="0.04" stroke-width="0.3"><path d="
M 227.00 189.00 
C 229.33 189.00 231.67 189.00 234.00 189.00
C 234.07 188.99 234.00 188.00 234.00 188.00
C 231.67 188.00 229.33 188.00 227.00 188.00
C 227.00 188.00 227.15 188.95 227.00 189.00 Z"/>
</g>
<g fill="None" fill-opacity="0.0" stroke="#FFFFFF" stroke-opacity="0.01" stroke-width="0.3"><path d="
M 234.00 189.00 
C 243.34 189.00 253.36 188.84 262.00 188.00
C 254.67 188.00 247.33 188.00 240.00 188.00
C 238.33 188.00 236.67 188.00 235.00 188.00
C 235.00 188.00 234.50 188.00 234.00 188.00
C 234.00 188.00 234.07 188.99 234.00 189.00 Z"/>
</g>
<g fill="None" fill-opacity="0.0" stroke="#D1B5DC" stroke-opacity="0.06" stroke-width="0.3"><path d="
M 215.00 190.00 
C 217.14 190.26 218.48 189.55 220.00 189.00
C 218.86 189.00 217.08 188.67 216.00 189.00
C 215.65 189.11 215.26 189.88 215.00 190.00 Z"/>
</g>
<g fill="None" fill-opacity="0.0" stroke="#DDCDE8" stroke-opacity="0.07" stroke-width="0.3"><path d="
M 200.00 193.00 
C 204.51 193.30 210.30 191.61 214.00 190.00
C 209.88 189.55 203.00 190.56 200.00 193.00 Z"/>
</g>
<g fill="None" fill-opacity="0.0" stroke="#625188" stroke-opacity="0.69" stroke-width="0.3"><path d="
M 145.00 195.00 
C 145.00 200.00 145.00 205.00 145.00 210.00
C 145.00 212.33 145.06 214.67 145.00 217.00
C 145.98 209.41 146.00 200.35 146.00 192.00
C 146.00 192.00 145.27 191.75 145.00 192.00
C 145.00 193.00 145.00 194.00 145.00 195.00 Z"/>
</g>
<g fill="None" fill-opacity="0.0" stroke="#6E558C" stroke-opacity="0.56" stroke-width="0.3"><path d="
M 190.00 194.00 
C 190.00 194.00 190.08 194.51 190.00 195.00
C 192.17 194.31 194.11 193.90 196.00 193.00
C 194.10 192.98 191.60 193.10 190.00 194.00 Z"/>
</g>
<g fill="None" fill-opacity="0.0" stroke="#E4DEEF" stroke-opacity="0.10" stroke-width="0.3"><path d="
M 190.00 195.00 
C 189.74 196.55 187.98 195.77 187.00 196.00
C 181.33 198.07 174.89 203.14 170.00 207.00
C 166.94 209.42 164.01 212.43 161.00 215.00
C 159.25 217.01 157.29 219.91 156.00 222.00
C 151.76 230.07 146.45 237.91 145.00 247.00
C 143.17 239.99 144.00 230.83 144.00 223.00
C 144.00 220.67 144.00 218.33 144.00 216.00
C 143.19 224.32 141.11 235.13 142.01 243.99 C 142.91 252.86 149.92 237.84 151.74 232.74 C 153.56 227.65 159.31 220.30 163.25 215.25 C 167.19 210.19 173.84 205.99 179.25 202.25 C 184.67 198.52 193.32 195.97 199.00 193.00
C 199.00 193.00 198.50 193.00 198.00 193.00
C 197.50 193.00 196.50 193.00 196.00 193.00
C 194.11 193.90 192.17 194.31 190.00 195.00 Z"/>
</g>
<g fill="None" fill-opacity="0.0" stroke="#E5D8F7" stroke-opacity="0.09" stroke-width="0.3"><path d="
M 144.00 210.00 
C 144.02 209.90 145.00 210.00 145.00 210.00
C 145.00 205.00 145.00 200.00 145.00 195.00
C 145.00 195.00 144.00 194.96 144.00 195.00
C 143.90 200.00 144.00 205.00 144.00 210.00 Z"/>
</g>
<g fill="None" fill-opacity="0.0" stroke="#67548D" stroke-opacity="0.65" stroke-width="0.3"><path d="
M 170.00 207.00 
C 174.89 203.14 181.33 198.07 187.00 196.00
C 179.91 197.64 174.44 202.29 170.00 207.00 Z"/>
</g>
<g fill="None" fill-opacity="0.0" stroke="#B0A1C7" stroke-opacity="0.22" stroke-width="0.3"><path d="
M 144.00 216.00 
C 144.00 218.33 144.00 220.67 144.00 223.00
C 144.16 221.57 144.95 219.13 145.00 217.00
C 145.06 214.67 145.00 212.33 145.00 210.00
C 145.00 210.00 144.02 209.90 144.00 210.00
C 144.00 212.00 144.00 214.00 144.00 216.00 Z"/>
</g>
<g fill="None" fill-opacity="0.0" stroke="#5E4E89" stroke-opacity="0.73" stroke-width="0.3"><path d="
M 156.00 222.00 
C 157.29 219.91 159.25 217.01 161.00 215.00
C 158.25 217.35 156.89 219.89 156.00 222.00 Z"/>
</g>
<g fill="None" fill-opacity="0.0" stroke="#FFFFFF" stroke-opacity="0.02" stroke-width="0.3"><path d="
M 231.00 222.00 
C 235.67 222.00 240.33 222.00 245.00 222.00
C 248.00 222.00 251.00 222.00 254.00 222.00
C 253.96 222.00 254.00 221.00 254.00 221.00
C 246.30 221.00 238.01 221.32 231.00 222.00 Z"/>
</g>
<g fill="None" fill-opacity="0.0" stroke="#E1FCF8" stroke-opacity="0.04" stroke-width="0.3"><path d="
M 254.00 222.00 
C 261.75 222.00 271.44 221.92 279.00 222.00 C 286.56 222.08 298.22 221.80 305.00 222.00 C 311.78 222.20 327.21 219.24 323.00 228.00
C 322.80 228.41 323.07 229.51 323.00 230.00
C 322.75 231.79 322.03 233.06 322.00 235.00
C 321.99 235.50 322.00 236.00 322.00 236.00
C 324.74 225.27 325.68 219.85 313.00 221.00 C 300.32 222.15 294.35 220.55 283.00 221.00 C 271.65 221.45 264.93 221.00 254.00 221.00
C 254.00 221.00 253.96 222.00 254.00 222.00 Z"/>
</g>
<g fill="None" fill-opacity="0.0" stroke="#CFF1EE" stroke-opacity="0.10" stroke-width="0.3"><path d="
M 143.00 318.00 
C 143.00 317.96 144.00 318.00 144.00 318.00
C 144.00 310.33 144.00 302.67 144.00 295.00
C 144.00 291.13 144.67 287.52 145.00 284.00
C 147.00 262.66 154.07 245.84 173.00 234.00
C 180.24 229.47 188.44 226.54 197.00 225.00
C 199.08 224.63 200.86 224.28 203.00 224.00
C 206.75 223.51 210.23 223.20 214.00 223.00
C 224.27 222.44 235.45 222.92 245.00 222.00
C 240.33 222.00 235.67 222.00 231.00 222.00
C 204.37 222.00 178.61 222.80 159.75 242.75 C 140.90 262.71 143.00 291.38 143.00 318.00 Z"/>
</g>
<g fill="None" fill-opacity="0.0" stroke="#73BC96" stroke-opacity="0.62" stroke-width="0.3"><path d="
M 214.00 223.00 
C 215.31 223.09 218.02 223.94 220.00 224.00
C 240.30 224.57 260.69 224.00 281.00 224.00
C 294.67 224.00 308.33 224.00 322.00 224.00
C 322.28 225.28 321.24 227.50 323.00 228.00
C 327.21 219.24 311.78 222.20 305.00 222.00 C 298.22 221.80 286.56 222.08 279.00 222.00 C 271.44 221.92 261.75 222.00 254.00 222.00
C 251.00 222.00 248.00 222.00 245.00 222.00
C 235.45 222.92 224.27 222.44 214.00 223.00 Z"/>
</g>
<g fill="None" fill-opacity="0.0" stroke="#68C3B1" stroke-opacity="0.98" stroke-width="0.3"><path d="
M 203.00 224.00 
C 202.77 224.06 202.53 225.77 200.96 225.96 C 199.39 226.16 197.70 225.00 197.00 225.00
C 188.44 226.54 180.24 229.47 173.00 234.00
C 174.01 233.90 176.40 236.56 178.00 236.00
C 176.72 238.92 176.02 238.19 179.00 240.00
C 173.98 244.49 178.27 253.70 177.98 259.02 C 177.68 264.35 173.85 273.29 183.00 272.00
C 179.96 273.67 173.62 272.12 174.00 278.00
C 176.24 276.26 178.93 276.31 182.00 278.00
C 180.99 281.25 177.03 279.08 175.00 281.00
C 177.43 283.84 176.68 286.98 175.00 290.00
C 183.61 286.06 190.08 283.00 200.00 283.00
C 201.67 283.00 203.33 283.00 205.00 283.00
C 207.12 282.77 210.21 282.00 213.00 282.00
C 224.66 282.00 236.34 282.23 248.00 282.00
C 234.99 280.14 219.88 280.50 208.00 276.00
C 210.58 273.28 215.85 273.51 219.00 274.00
C 212.38 268.10 219.65 260.91 218.00 253.00 C 216.35 245.09 218.52 241.54 215.00 234.00
C 218.13 231.84 219.06 227.81 220.00 224.00
C 218.02 223.94 215.31 223.09 214.00 223.00
C 210.23 223.20 206.75 223.51 203.00 224.00 Z"/>
</g>
<g fill="None" fill-opacity="0.0" stroke="#7ABFAD" stroke-opacity="0.70" stroke-width="0.3"><path d="
M 197.00 225.00 
C 197.70 225.00 199.39 226.16 200.96 225.96 C 202.53 225.77 202.77 224.06 203.00 224.00
C 200.86 224.28 199.08 224.63 197.00 225.00 Z"/>
</g>
<g fill="None" fill-opacity="0.0" stroke="#59BD8D" stroke-opacity="1.00" stroke-width="0.3"><path d="
M 248.00 282.00 
C 254.43 281.87 260.40 281.00 267.00 281.00
C 267.15 280.97 268.21 279.00 270.01 279.01 C 271.81 279.03 274.06 280.00 275.00 280.00
C 277.54 279.68 280.47 278.55 283.00 278.00
C 282.03 273.26 277.12 277.01 274.00 277.00
C 277.28 275.29 273.81 275.21 273.00 273.00
C 276.09 271.11 275.13 264.34 275.00 260.00 C 274.88 255.65 280.81 248.16 273.00 247.00
C 274.01 244.96 275.68 244.60 277.00 244.00
C 275.35 236.55 279.28 231.33 274.00 225.00
C 276.20 224.48 279.62 226.14 281.00 224.00
C 260.69 224.00 240.30 224.57 220.00 224.00
C 219.06 227.81 218.13 231.84 215.00 234.00
C 218.52 241.54 216.35 245.09 218.00 253.00 C 219.65 260.91 212.38 268.10 219.00 274.00
C 215.85 273.51 210.58 273.28 208.00 276.00
C 219.88 280.50 234.99 280.14 248.00 282.00 Z"/>
</g>
<g fill="None" fill-opacity="0.0" stroke="#3BB66B" stroke-opacity="0.98" stroke-width="0.3"><path d="
M 283.00 278.00 
C 303.57 273.52 315.98 256.60 321.00 237.00
C 321.41 233.82 320.46 232.76 323.00 230.00
C 323.07 229.51 322.80 228.41 323.00 228.00
C 321.24 227.50 322.28 225.28 322.00 224.00
C 308.33 224.00 294.67 224.00 281.00 224.00
C 279.62 226.14 276.20 224.48 274.00 225.00
C 279.28 231.33 275.35 236.55 277.00 244.00
C 275.68 244.60 274.01 244.96 273.00 247.00
C 280.81 248.16 274.88 255.65 275.00 260.00 C 275.13 264.34 276.09 271.11 273.00 273.00
C 273.81 275.21 277.28 275.29 274.00 277.00
C 277.12 277.01 282.03 273.26 283.00 278.00 Z"/>
</g>
<g fill="None" fill-opacity="0.0" stroke="#45AB6C" stroke-opacity="0.65" stroke-width="0.3"><path d="
M 321.00 237.00 
C 321.27 235.93 321.71 235.74 322.00 235.00
C 322.03 233.06 322.75 231.79 323.00 230.00
C 320.46 232.76 321.41 233.82 321.00 237.00 Z"/>
</g>
<g fill="None" fill-opacity="0.0" stroke="#6CC7CE" stroke-opacity="0.98" stroke-width="0.3"><path d="
M 145.00 284.00 
C 146.25 296.89 146.00 311.39 146.00 325.00
C 146.15 324.45 147.75 323.48 148.00 323.00
C 148.03 322.50 148.00 322.00 148.00 322.00
C 148.12 320.09 149.24 319.36 150.00 318.00
C 151.52 314.30 153.74 310.39 156.00 307.00
C 156.23 306.65 156.00 306.00 156.00 306.00
C 156.65 300.63 170.62 292.00 175.00 290.00
C 176.68 286.98 177.43 283.84 175.00 281.00
C 177.03 279.08 180.99 281.25 182.00 278.00
C 178.93 276.31 176.24 276.26 174.00 278.00
C 173.62 272.12 179.96 273.67 183.00 272.00
C 173.85 273.29 177.68 264.35 177.98 259.02 C 178.27 253.70 173.98 244.49 179.00 240.00
C 176.02 238.19 176.72 238.92 178.00 236.00
C 176.40 236.56 174.01 233.90 173.00 234.00
C 154.07 245.84 147.00 262.66 145.00 284.00 Z"/>
</g>
<g fill="None" fill-opacity="0.0" stroke="#B6E6C7" stroke-opacity="0.09" stroke-width="0.3"><path d="
M 321.00 237.00 
C 315.98 256.60 303.57 273.52 283.00 278.00
C 280.47 278.55 277.54 279.68 275.00 280.00
C 272.56 280.31 270.94 280.22 269.00 281.00
C 269.50 281.00 270.50 280.97 271.00 281.00
C 294.66 282.48 321.42 260.35 322.00 236.00
C 322.00 236.00 321.99 235.50 322.00 235.00
C 321.71 235.74 321.27 235.93 321.00 237.00 Z"/>
</g>
<g fill="None" fill-opacity="0.0" stroke="#6BB68E" stroke-opacity="0.57" stroke-width="0.3"><path d="
M 267.00 281.00 
C 267.50 281.00 268.50 281.00 269.00 281.00
C 270.94 280.22 272.56 280.31 275.00 280.00
C 274.06 280.00 271.81 279.03 270.01 279.01 C 268.21 279.00 267.15 280.97 267.00 281.00 Z"/>
</g>
<g fill="None" fill-opacity="0.0" stroke="#ECFCEF" stroke-opacity="0.06" stroke-width="0.3"><path d="
M 248.00 282.00 
C 236.34 282.23 224.66 282.00 213.00 282.00
C 213.04 282.00 213.00 283.00 213.00 283.00
C 213.00 293.67 213.00 304.33 213.00 315.00
C 213.00 316.33 213.00 317.67 213.00 319.00
C 215.33 307.99 213.33 294.83 214.00 283.00
C 233.09 283.41 252.94 283.18 271.00 281.00
C 270.50 280.97 269.50 281.00 269.00 281.00
C 268.50 281.00 267.50 281.00 267.00 281.00
C 260.40 281.00 254.43 281.87 248.00 282.00 Z"/>
</g>
<g fill="None" fill-opacity="0.0" stroke="#A39E7E" stroke-opacity="0.93" stroke-width="0.3"><path d="
M 205.00 283.00 
C 207.33 283.00 209.67 283.00 212.00 283.00
C 212.50 283.00 213.00 283.00 213.00 283.00
C 213.00 283.00 213.04 282.00 213.00 282.00
C 210.21 282.00 207.12 282.77 205.00 283.00 Z"/>
</g>
<g fill="None" fill-opacity="0.0" stroke="#90B39E" stroke-opacity="1.00" stroke-width="0.3"><path d="
M 175.00 290.00 
C 170.62 292.00 156.65 300.63 156.00 306.00
C 162.13 301.71 166.38 295.38 173.00 292.00
C 174.52 291.22 176.38 290.65 178.00 290.00
C 179.41 289.24 180.04 288.12 182.00 288.00
C 182.50 287.97 183.00 288.00 183.00 288.00
C 185.83 286.84 187.92 286.40 191.00 286.00
C 193.43 285.43 197.61 283.35 200.00 283.00
C 190.08 283.00 183.61 286.06 175.00 290.00 Z"/>
</g>
<g fill="None" fill-opacity="0.0" stroke="#9E7651" stroke-opacity="1.00" stroke-width="0.3"><path d="
M 191.00 286.00 
C 198.06 285.08 204.67 284.66 212.00 284.00
C 212.00 283.50 212.00 283.00 212.00 283.00
C 209.67 283.00 207.33 283.00 205.00 283.00
C 203.33 283.00 201.67 283.00 200.00 283.00
C 197.61 283.35 193.43 285.43 191.00 286.00 Z"/>
</g>
<g fill="None" fill-opacity="0.0" stroke="#E1AF9A" stroke-opacity="0.35" stroke-width="0.3"><path d="
M 212.00 284.00 
C 212.00 294.33 212.00 304.67 212.00 315.00
C 212.00 314.96 213.00 315.00 213.00 315.00
C 213.00 304.33 213.00 293.67 213.00 283.00
C 213.00 283.00 212.50 283.00 212.00 283.00
C 212.00 283.00 212.00 283.50 212.00 284.00 Z"/>
</g>
<g fill="None" fill-opacity="0.0" stroke="#7FC6CB" stroke-opacity="0.79" stroke-width="0.3"><path d="
M 144.00 295.00 
C 144.96 304.95 145.00 316.35 145.00 327.00
C 145.25 326.75 146.00 327.00 146.00 327.00
C 146.23 326.84 146.00 325.50 146.00 325.00
C 146.00 311.39 146.25 296.89 145.00 284.00
C 144.67 287.52 144.00 291.13 144.00 295.00 Z"/>
</g>
<g fill="None" fill-opacity="0.0" stroke="#CF5727" stroke-opacity="1.00" stroke-width="0.3"><path d="
M 191.00 286.00 
C 187.92 286.40 185.83 286.84 183.00 288.00
C 181.30 292.78 170.29 293.12 167.25 298.25 C 164.20 303.37 157.70 306.77 155.23 312.23 C 152.76 317.69 147.31 323.37 146.00 329.00
C 146.00 330.33 146.00 331.67 146.00 333.00
C 146.14 332.44 147.79 331.19 147.00 330.00
C 148.69 334.21 149.26 331.50 149.00 328.00
C 150.33 330.94 151.02 333.11 151.00 328.00
C 154.12 327.52 157.19 328.88 158.00 332.00
C 169.99 324.98 188.90 336.57 200.00 329.00
C 203.15 330.19 205.86 331.28 209.00 329.00
C 208.94 331.12 208.77 333.23 210.00 335.00
C 210.11 335.20 211.00 335.00 211.00 335.00
C 211.26 334.88 211.95 334.23 212.00 334.00
C 211.43 327.78 212.00 321.25 212.00 315.00
C 212.00 304.67 212.00 294.33 212.00 284.00
C 204.67 284.66 198.06 285.08 191.00 286.00 Z"/>
</g>
<g fill="None" fill-opacity="0.0" stroke="#9C9276" stroke-opacity="1.00" stroke-width="0.3"><path d="
M 178.00 290.00 
C 179.67 289.34 180.72 289.32 182.00 288.00
C 180.04 288.12 179.41 289.24 178.00 290.00 Z"/>
</g>
<g fill="None" fill-opacity="0.0" stroke="#A96A4E" stroke-opacity="1.00" stroke-width="0.3"><path d="
M 178.00 290.00 
C 176.38 290.65 174.52 291.22 173.00 292.00
C 167.37 295.61 162.30 304.37 156.00 307.00
C 153.74 310.39 151.52 314.30 150.00 318.00
C 149.32 319.66 149.32 320.72 148.00 322.00
C 148.00 322.00 148.03 322.50 148.00 323.00
C 147.88 324.89 146.57 325.65 146.00 327.00
C 146.23 327.16 146.00 328.50 146.00 329.00
C 147.31 323.37 152.76 317.69 155.23 312.23 C 157.70 306.77 164.20 303.37 167.25 298.25 C 170.29 293.12 181.30 292.78 183.00 288.00
C 183.00 288.00 182.50 287.97 182.00 288.00
C 180.72 289.32 179.67 289.34 178.00 290.00 Z"/>
</g>
<g fill="None" fill-opacity="0.0" stroke="#9B8D78" stroke-opacity="1.00" stroke-width="0.3"><path d="
M 156.00 306.00 
C 156.00 306.00 156.23 306.65 156.00 307.00
C 162.30 304.37 167.37 295.61 173.00 292.00
C 166.38 295.38 162.13 301.71 156.00 306.00 Z"/>
</g>
<g fill="None" fill-opacity="0.0" stroke="#A6DCDF" stroke-opacity="0.40" stroke-width="0.3"><path d="
M 144.00 318.00 
C 144.00 321.60 144.36 325.08 145.00 328.00
C 145.00 327.50 145.00 327.00 145.00 327.00
C 145.00 316.35 144.96 304.95 144.00 295.00
C 144.00 302.67 144.00 310.33 144.00 318.00 Z"/>
</g>
<g fill="None" fill-opacity="0.0" stroke="#F9D4BF" stroke-opacity="0.15" stroke-width="0.3"><path d="
M 212.00 334.00 
C 212.01 333.93 213.00 334.00 213.00 334.00
C 213.10 329.00 213.00 324.00 213.00 319.00
C 213.00 317.67 213.00 316.33 213.00 315.00
C 213.00 315.00 212.00 314.96 212.00 315.00
C 212.00 321.25 211.43 327.78 212.00 334.00 Z"/>
</g>
<g fill="None" fill-opacity="0.0" stroke="#FCFBFA" stroke-opacity="0.03" stroke-width="0.3"><path d="
M 144.00 351.00 
C 144.00 344.30 143.70 336.94 145.00 331.00
C 145.00 330.00 145.00 329.00 145.00 328.00
C 144.36 325.08 144.00 321.60 144.00 318.00
C 144.00 318.00 143.00 317.96 143.00 318.00
C 143.00 328.98 143.01 340.72 144.00 351.00 Z"/>
</g>
<g fill="None" fill-opacity="0.0" stroke="#A18C8D" stroke-opacity="1.00" stroke-width="0.3"><path d="
M 148.00 322.00 
C 149.32 320.72 149.32 319.66 150.00 318.00
C 149.24 319.36 148.12 320.09 148.00 322.00 Z"/>
</g>
<g fill="None" fill-opacity="0.0" stroke="#9F8B76" stroke-opacity="1.00" stroke-width="0.3"><path d="
M 146.00 325.00 
C 146.00 325.50 146.23 326.84 146.00 327.00
C 146.57 325.65 147.88 324.89 148.00 323.00
C 147.75 323.48 146.15 324.45 146.00 325.00 Z"/>
</g>
<g fill="None" fill-opacity="0.0" stroke="#C87D4A" stroke-opacity="0.78" stroke-width="0.3"><path d="
M 145.00 328.00 
C 145.00 329.00 145.00 330.00 145.00 331.00
C 145.00 345.00 145.00 359.00 145.00 373.00
C 145.00 375.67 145.00 378.33 145.00 381.00
C 145.00 380.96 146.00 381.00 146.00 381.00
C 146.00 371.33 146.00 361.67 146.00 352.00
C 146.00 345.67 146.00 339.33 146.00 333.00
C 146.00 331.67 146.00 330.33 146.00 329.00
C 146.00 328.50 146.23 327.16 146.00 327.00
C 146.00 327.00 145.25 326.75 145.00 327.00
C 145.00 327.00 145.00 327.50 145.00 328.00 Z"/>
</g>
<g fill="None" fill-opacity="0.0" stroke="#DC6926" stroke-opacity="1.00" stroke-width="0.3"><path d="
M 146.00 333.00 
C 146.00 339.33 146.00 345.67 146.00 352.00
C 146.19 353.95 147.93 357.34 147.00 360.00
C 150.43 358.42 149.80 359.31 154.00 358.00
C 156.62 363.61 168.53 358.15 176.00 360.00 C 183.47 361.85 194.66 356.53 200.00 362.00
C 201.81 359.57 203.41 360.20 205.00 358.00
C 206.27 358.56 206.25 360.85 208.00 361.00
C 209.24 356.16 210.00 351.67 210.00 346.00
C 210.00 342.38 209.67 338.60 210.00 335.00
C 208.77 333.23 208.94 331.12 209.00 329.00
C 205.86 331.28 203.15 330.19 200.00 329.00
C 188.90 336.57 169.99 324.98 158.00 332.00
C 157.19 328.88 154.12 327.52 151.00 328.00
C 151.02 333.11 150.33 330.94 149.00 328.00
C 149.26 331.50 148.69 334.21 147.00 330.00
C 147.79 331.19 146.14 332.44 146.00 333.00 Z"/>
</g>
<g fill="None" fill-opacity="0.0" stroke="#FBC5A4" stroke-opacity="0.20" stroke-width="0.3"><path d="
M 144.00 351.00 
C 144.00 358.33 144.00 365.67 144.00 373.00
C 144.00 372.96 145.00 373.00 145.00 373.00
C 145.00 359.00 145.00 345.00 145.00 331.00
C 143.70 336.94 144.00 344.30 144.00 351.00 Z"/>
</g>
<g fill="None" fill-opacity="0.0" stroke="#ECB58D" stroke-opacity="0.31" stroke-width="0.3"><path d="
M 211.00 335.00 
C 210.58 337.94 211.36 341.05 211.00 344.00
C 211.20 343.76 212.00 344.00 212.00 344.00
C 212.00 343.00 212.00 342.00 212.00 341.00
C 212.00 338.74 211.70 336.24 212.00 334.00
C 211.95 334.23 211.26 334.88 211.00 335.00 Z"/>
</g>
<g fill="None" fill-opacity="0.0" stroke="#FEFFF9" stroke-opacity="0.01" stroke-width="0.3"><path d="
M 212.00 341.00 
C 212.44 338.99 212.95 336.66 213.00 334.00
C 213.00 334.00 212.01 333.93 212.00 334.00
C 211.70 336.24 212.00 338.74 212.00 341.00 Z"/>
</g>
<g fill="None" fill-opacity="0.0" stroke="#C27241" stroke-opacity="0.77" stroke-width="0.3"><path d="
M 210.00 346.00 
C 210.13 345.50 210.88 344.97 211.00 344.00
C 211.36 341.05 210.58 337.94 211.00 335.00
C 211.00 335.00 210.11 335.20 210.00 335.00
C 209.67 338.60 210.00 342.38 210.00 346.00 Z"/>
</g>
<g fill="None" fill-opacity="0.0" stroke="#F8DFB5" stroke-opacity="0.11" stroke-width="0.3"><path d="
M 210.00 346.00 
C 210.00 351.67 209.24 356.16 208.00 361.00
C 205.31 371.54 202.71 380.98 196.00 390.00
C 185.19 404.53 166.09 412.98 149.00 415.00
C 147.33 415.20 146.29 416.76 145.00 414.00
C 142.55 410.65 145.84 402.47 145.00 398.00 C 144.16 393.53 145.00 385.77 145.00 381.00
C 145.00 378.33 145.00 375.67 145.00 373.00
C 145.00 373.00 144.00 372.96 144.00 373.00
C 144.00 385.50 144.10 397.44 144.00 410.00 C 143.90 422.56 160.26 413.92 168.31 411.31 C 176.35 408.69 184.58 403.51 191.25 397.25 C 197.92 390.99 202.46 383.50 205.69 374.69 C 208.93 365.89 212.00 353.97 212.00 344.00
C 212.00 344.00 211.20 343.76 211.00 344.00
C 210.88 344.97 210.13 345.50 210.00 346.00 Z"/>
</g>
<g fill="None" fill-opacity="0.0" stroke="#E68126" stroke-opacity="0.99" stroke-width="0.3"><path d="
M 146.00 381.00 
C 146.00 387.00 146.00 393.00 146.00 399.00
C 146.38 395.06 145.82 386.84 150.00 385.00
C 151.41 386.81 150.83 389.84 153.00 391.00
C 164.67 388.11 176.90 392.28 188.00 387.00
C 185.23 394.67 193.02 387.76 196.00 390.00
C 202.71 380.98 205.31 371.54 208.00 361.00
C 206.25 360.85 206.27 358.56 205.00 358.00
C 203.41 360.20 201.81 359.57 200.00 362.00
C 194.66 356.53 183.47 361.85 176.00 360.00 C 168.53 358.15 156.62 363.61 154.00 358.00
C 149.80 359.31 150.43 358.42 147.00 360.00
C 147.93 357.34 146.19 353.95 146.00 352.00
C 146.00 361.67 146.00 371.33 146.00 381.00 Z"/>
</g>
<g fill="None" fill-opacity="0.0" stroke="#D59B49" stroke-opacity="0.72" stroke-width="0.3"><path d="
M 145.00 414.00 
C 145.84 415.15 147.79 414.90 149.00 415.00
C 148.40 414.84 147.22 413.23 146.00 414.00
C 146.00 409.00 146.00 404.00 146.00 399.00
C 146.00 393.00 146.00 387.00 146.00 381.00
C 146.00 381.00 145.00 380.96 145.00 381.00
C 145.00 385.77 144.16 393.53 145.00 398.00 C 145.84 402.47 142.55 410.65 145.00 414.00 Z"/>
</g>
<g fill="None" fill-opacity="0.0" stroke="#E49628" stroke-opacity="0.97" stroke-width="0.3"><path d="
M 146.00 399.00 
C 146.00 404.00 146.00 409.00 146.00 414.00
C 147.22 413.23 148.40 414.84 149.00 415.00
C 166.09 412.98 185.19 404.53 196.00 390.00
C 193.02 387.76 185.23 394.67 188.00 387.00
C 176.90 392.28 164.67 388.11 153.00 391.00
C 150.83 389.84 151.41 386.81 150.00 385.00
C 145.82 386.84 146.38 395.06 146.00 399.00 Z"/>
</g>
<g fill="None" fill-opacity="0.0" stroke="#D8B568" stroke-opacity="0.31" stroke-width="0.3"><path d="
M 149.00 415.00 
C 147.79 414.90 145.84 415.15 145.00 414.00
C 146.29 416.76 147.33 415.20 149.00 415.00 Z"/>
</g>
<g fill="#000000" fill-opacity="0.00" stroke="None">
<path d="
M 0.00 499.00 
L 499.00 499.00
L 499.00 0.00
L 0.00 0.00
L 0.00 499.00
M 312.00 186.00 
C 310.97 186.21 309.58 186.91 308.00 187.00
C 305.68 187.13 303.32 187.00 301.00 187.00
C 299.54 187.16 297.09 187.94 295.00 188.00
C 284.02 188.31 272.98 188.00 262.00 188.00
C 253.36 188.84 243.34 189.00 234.00 189.00
C 231.67 189.00 229.33 189.00 227.00 189.00
C 225.33 189.00 223.67 189.00 222.00 189.00
C 221.50 189.00 220.50 189.00 220.00 189.00
C 218.48 189.55 217.14 190.26 215.00 190.00
C 214.51 189.94 214.00 190.00 214.00 190.00
C 210.30 191.61 204.51 193.30 200.00 193.00
C 199.50 192.97 199.00 193.00 199.00 193.00
C 193.32 195.97 184.67 198.52 179.25 202.25 C 173.84 205.99 167.19 210.19 163.25 215.25 C 159.31 220.30 153.56 227.65 151.74 232.74 C 149.92 237.84 142.91 252.86 142.01 243.99 C 141.11 235.13 143.19 224.32 144.00 216.00
C 144.00 214.00 144.00 212.00 144.00 210.00
C 144.00 205.00 143.90 200.00 144.00 195.00
C 144.06 192.21 144.07 190.18 145.00 188.00
C 145.00 187.50 145.00 186.50 145.00 186.00
C 145.00 168.92 152.66 153.10 163.00 140.00
C 165.62 136.68 168.73 133.58 172.00 131.00
C 181.57 123.45 197.26 113.15 210.00 114.00
C 210.50 114.03 211.00 114.00 211.00 114.00
C 212.02 112.96 213.38 112.79 215.00 113.00
C 215.49 113.06 216.00 113.00 216.00 113.00
C 219.91 111.29 224.29 111.00 229.00 111.00
C 232.40 110.67 236.92 110.00 241.00 110.00
C 287.00 110.00 333.00 110.00 379.00 110.00
C 377.01 146.74 353.20 187.33 312.00 186.00
M 322.00 236.00 
C 321.42 260.35 294.66 282.48 271.00 281.00
C 252.94 283.18 233.09 283.41 214.00 283.00
C 213.33 294.83 215.33 307.99 213.00 319.00
C 213.00 324.00 213.10 329.00 213.00 334.00
C 212.95 336.66 212.44 338.99 212.00 341.00
C 212.00 342.00 212.00 343.00 212.00 344.00
C 212.00 353.97 208.93 365.89 205.69 374.69 C 202.46 383.50 197.92 390.99 191.25 397.25 C 184.58 403.51 176.35 408.69 168.31 411.31 C 160.26 413.92 143.90 422.56 144.00 410.00 C 144.10 397.44 144.00 385.50 144.00 373.00
C 144.00 365.67 144.00 358.33 144.00 351.00
C 143.01 340.72 143.00 328.98 143.00 318.00
C 143.00 291.38 140.90 262.71 159.75 242.75 C 178.61 222.80 204.37 222.00 231.00 222.00
C 238.01 221.32 246.30 221.00 254.00 221.00
C 264.93 221.00 271.65 221.45 283.00 221.00 C 294.35 220.55 300.32 222.15 313.00 221.00 C 325.68 219.85 324.74 225.27 322.00 236.00 Z"/>
</g>
<g fill="#FFFFFF" fill-opacity="0.01" stroke="None">
<path d="
M 229.00 111.00 
C 229.50 111.00 230.50 111.00 231.00 111.00
C 234.00 111.00 237.00 111.00 240.00 111.00
C 240.50 111.00 241.00 111.00 241.00 111.00
C 241.25 110.75 241.00 110.00 241.00 110.00
C 236.92 110.00 232.40 110.67 229.00 111.00 Z"/>
</g>
<g fill="#ECC9E8" fill-opacity="0.11" stroke="None">
<path d="
M 241.00 111.00 
C 245.67 111.00 250.33 111.00 255.00 111.00
C 258.00 111.00 261.00 111.00 264.00 111.00
C 293.00 111.00 322.00 111.00 351.00 111.00
C 360.00 111.00 369.00 111.00 378.00 111.00
C 377.58 117.22 376.14 123.23 374.00 129.00
C 371.34 137.88 368.54 146.02 364.00 154.00
C 362.70 156.29 361.98 158.10 360.00 160.00
C 359.91 160.48 360.00 161.00 360.00 161.00
C 357.70 167.38 349.53 173.01 344.00 176.00
C 340.92 177.66 337.53 179.22 334.00 180.00
C 331.80 180.81 329.54 181.33 327.00 182.00
C 326.33 182.43 325.75 182.75 325.00 183.00
C 320.74 184.44 315.04 185.11 311.00 186.00
C 311.50 186.00 312.00 186.00 312.00 186.00
C 353.20 187.33 377.01 146.74 379.00 110.00
C 333.00 110.00 287.00 110.00 241.00 110.00
C 241.00 110.00 241.25 110.75 241.00 111.00 Z"/>
</g>
<g fill="#D4BDDC" fill-opacity="0.08" stroke="None">
<path d="
M 216.00 113.00 
C 217.33 113.00 218.67 113.00 220.00 113.00
C 220.50 113.00 221.00 113.00 221.00 113.00
C 223.58 111.52 228.01 111.57 231.00 112.00
C 230.81 111.59 231.00 111.00 231.00 111.00
C 230.50 111.00 229.50 111.00 229.00 111.00
C 224.29 111.00 219.91 111.29 216.00 113.00 Z"/>
</g>
<g fill="#845690" fill-opacity="0.49" stroke="None">
<path d="
M 231.00 112.00 
C 231.12 112.26 231.77 112.95 232.00 113.00
C 235.94 112.69 240.04 113.00 244.00 113.00
C 243.85 112.95 244.00 112.00 244.00 112.00
C 242.42 111.91 240.97 111.17 240.00 111.00
C 237.00 111.00 234.00 111.00 231.00 111.00
C 231.00 111.00 230.81 111.59 231.00 112.00 Z"/>
</g>
<g fill="#815689" fill-opacity="0.31" stroke="None">
<path d="
M 244.00 112.00 
C 247.64 112.21 251.35 112.00 255.00 112.00
C 254.75 111.73 255.00 111.00 255.00 111.00
C 250.33 111.00 245.67 111.00 241.00 111.00
C 241.00 111.00 240.50 111.00 240.00 111.00
C 240.97 111.17 242.42 111.91 244.00 112.00 Z"/>
</g>
<g fill="#754179" fill-opacity="0.49" stroke="None">
<path d="
M 255.00 112.00 
C 256.00 112.00 257.00 112.00 258.00 112.00
C 260.00 112.00 262.00 112.00 264.00 112.00
C 264.10 111.98 264.00 111.00 264.00 111.00
C 261.00 111.00 258.00 111.00 255.00 111.00
C 255.00 111.00 254.75 111.73 255.00 112.00 Z"/>
</g>
<g fill="#874180" fill-opacity="0.67" stroke="None">
<path d="
M 264.00 112.00 
C 286.00 112.00 308.00 112.00 330.00 112.00
C 337.00 112.00 344.00 112.00 351.00 112.00
C 350.96 112.00 351.00 111.00 351.00 111.00
C 322.00 111.00 293.00 111.00 264.00 111.00
C 264.00 111.00 264.10 111.98 264.00 112.00 Z"/>
</g>
<g fill="#A86693" fill-opacity="0.65" stroke="None">
<path d="
M 351.00 112.00 
C 356.40 112.00 369.35 110.86 374.00 112.00 C 378.65 113.14 374.20 126.85 374.00 129.00
C 376.14 123.23 377.58 117.22 378.00 111.00
C 369.00 111.00 360.00 111.00 351.00 111.00
C 351.00 111.00 350.96 112.00 351.00 112.00 Z"/>
</g>
<g fill="#76448A" fill-opacity="0.63" stroke="None">
<path d="
M 221.00 113.00 
C 224.13 115.32 228.40 113.29 232.00 113.00
C 231.77 112.95 231.12 112.26 231.00 112.00
C 228.01 111.57 223.58 111.52 221.00 113.00 Z"/>
</g>
<g fill="#7B3988" fill-opacity="0.83" stroke="None">
<path d="
M 244.00 113.00 
C 245.67 113.00 247.33 113.00 249.00 113.00
C 252.10 113.00 255.64 112.23 258.00 112.00
C 257.00 112.00 256.00 112.00 255.00 112.00
C 251.35 112.00 247.64 112.21 244.00 112.00
C 244.00 112.00 243.85 112.95 244.00 113.00 Z"/>
</g>
<g fill="#913693" fill-opacity="1.00" stroke="None">
<path d="
M 249.00 113.00 
C 248.41 113.15 247.21 114.78 246.00 114.00
C 248.70 115.26 248.45 118.67 246.00 120.00
C 249.11 120.09 247.24 125.91 252.00 124.00
C 248.96 127.11 252.25 127.88 252.00 132.00
C 254.37 130.01 257.34 129.91 255.00 134.00
C 260.34 134.33 263.19 138.85 266.00 142.00
C 258.41 145.22 264.55 159.34 272.00 160.00
C 271.65 163.15 271.54 167.30 276.00 166.00
C 275.41 171.07 283.39 177.74 276.00 179.00
C 280.29 177.87 284.29 181.47 288.00 180.00
C 288.57 182.49 284.17 182.13 285.00 185.00
C 298.56 185.00 312.94 183.56 325.00 183.00
C 325.75 182.75 326.33 182.43 327.00 182.00
C 329.32 180.53 331.18 180.62 334.00 180.00
C 337.53 179.22 340.92 177.66 344.00 176.00
C 349.90 171.99 354.88 165.90 360.00 161.00
C 360.00 161.00 359.91 160.48 360.00 160.00
C 360.10 159.48 360.76 158.47 361.00 158.00
C 359.41 157.34 355.74 159.92 356.00 155.00
C 361.43 150.26 352.17 149.03 350.32 145.68 C 348.47 142.33 346.31 136.55 343.81 134.74 C 341.32 132.94 341.77 127.11 336.77 125.23 C 331.77 123.35 336.64 112.27 330.00 112.00
C 308.00 112.00 286.00 112.00 264.00 112.00
C 262.00 112.00 260.00 112.00 258.00 112.00
C 255.64 112.23 252.10 113.00 249.00 113.00 Z"/>
</g>
<g fill="#AF4999" fill-opacity="0.99" stroke="None">
<path d="
M 361.00 158.00 
C 361.89 156.24 362.94 155.37 364.00 154.00
C 368.54 146.02 371.34 137.88 374.00 129.00
C 374.20 126.85 378.65 113.14 374.00 112.00 C 369.35 110.86 356.40 112.00 351.00 112.00
C 344.00 112.00 337.00 112.00 330.00 112.00
C 336.64 112.27 331.77 123.35 336.77 125.23 C 341.77 127.11 341.32 132.94 343.81 134.74 C 346.31 136.55 348.47 142.33 350.32 145.68 C 352.17 149.03 361.43 150.26 356.00 155.00
C 355.74 159.92 359.41 157.34 361.00 158.00 Z"/>
</g>
<g fill="#D9C8E0" fill-opacity="0.07" stroke="None">
<path d="
M 211.00 114.00 
C 211.50 114.00 212.00 114.00 212.00 114.00
C 212.50 114.00 213.53 114.12 214.00 114.00
C 214.35 113.91 214.74 113.12 215.00 113.00
C 213.38 112.79 212.02 112.96 211.00 114.00 Z"/>
</g>
<g fill="#75478C" fill-opacity="0.65" stroke="None">
<path d="
M 214.00 114.00 
C 216.18 115.03 219.14 116.23 220.00 113.00
C 218.67 113.00 217.33 113.00 216.00 113.00
C 216.00 113.00 215.49 113.06 215.00 113.00
C 214.74 113.12 214.35 113.91 214.00 114.00 Z"/>
</g>
<g fill="#753B95" fill-opacity="1.00" stroke="None">
<path d="
M 214.00 114.00 
C 213.53 114.12 212.50 114.00 212.00 114.00
C 212.24 117.40 209.80 114.94 209.00 115.00
C 207.71 115.38 206.31 115.65 205.00 116.00
C 203.30 116.74 202.01 116.80 201.00 117.00
C 197.42 118.21 193.44 119.39 190.00 121.00
C 186.02 123.49 182.46 127.07 178.00 129.00
C 168.56 136.75 161.91 145.79 169.00 154.00
C 169.53 149.55 172.96 149.73 174.00 154.00
C 172.21 155.13 170.29 154.81 170.00 157.00
C 172.04 159.84 174.13 155.75 175.00 157.00
C 174.17 166.11 182.03 168.54 186.00 174.00
C 179.94 179.06 189.28 188.02 190.00 194.00
C 191.60 193.10 194.10 192.98 196.00 193.00
C 196.50 193.00 197.50 193.00 198.00 193.00
C 198.98 187.43 212.99 188.59 216.00 189.00
C 217.08 188.67 218.86 189.00 220.00 189.00
C 220.50 189.00 221.50 189.00 222.00 189.00
C 223.22 188.63 224.15 187.76 226.00 188.00
C 228.53 187.55 231.92 187.30 235.00 187.00
C 239.29 182.57 253.33 186.90 260.00 186.00 C 266.67 185.10 277.91 185.00 285.00 185.00
C 284.17 182.13 288.57 182.49 288.00 180.00
C 284.29 181.47 280.29 177.87 276.00 179.00
C 283.39 177.74 275.41 171.07 276.00 166.00
C 271.54 167.30 271.65 163.15 272.00 160.00
C 264.55 159.34 258.41 145.22 266.00 142.00
C 263.19 138.85 260.34 134.33 255.00 134.00
C 257.34 129.91 254.37 130.01 252.00 132.00
C 252.25 127.88 248.96 127.11 252.00 124.00
C 247.24 125.91 249.11 120.09 246.00 120.00
C 248.45 118.67 248.70 115.26 246.00 114.00
C 247.21 114.78 248.41 113.15 249.00 113.00
C 247.33 113.00 245.67 113.00 244.00 113.00
C 240.04 113.00 235.94 112.69 232.00 113.00
C 228.40 113.29 224.13 115.32 221.00 113.00
C 221.00 113.00 220.50 113.00 220.00 113.00
C 219.14 116.23 216.18 115.03 214.00 114.00 Z"/>
</g>
<g fill="#E1D5EC" fill-opacity="0.10" stroke="None">
<path d="
M 172.00 131.00 
C 169.11 133.67 165.62 137.16 163.00 140.00
C 152.66 153.10 145.00 168.92 145.00 186.00
C 145.34 185.77 146.00 186.00 146.00 186.00
C 146.00 184.69 145.87 183.30 146.00 182.00
C 146.78 174.02 150.10 166.39 153.00 159.00
C 153.92 156.65 154.73 154.29 156.00 152.00
C 156.91 150.35 158.02 149.34 159.00 148.00
C 160.18 145.84 161.48 143.92 163.00 142.00
C 165.98 138.22 170.66 132.12 175.00 130.00
C 175.40 129.80 176.00 130.00 176.00 130.00
C 179.60 126.24 185.21 123.24 190.00 121.00
C 193.44 119.39 197.42 118.21 201.00 117.00
C 202.40 116.53 203.56 116.38 205.00 116.00
C 206.31 115.65 207.71 115.38 209.00 115.00
C 209.35 114.90 209.74 114.12 210.00 114.00
C 197.26 113.15 181.57 123.45 172.00 131.00 Z"/>
</g>
<g fill="#784D90" fill-opacity="0.56" stroke="None">
<path d="
M 209.00 115.00 
C 209.80 114.94 212.24 117.40 212.00 114.00
C 212.00 114.00 211.50 114.00 211.00 114.00
C 211.00 114.00 210.50 114.03 210.00 114.00
C 209.74 114.12 209.35 114.90 209.00 115.00 Z"/>
</g>
<g fill="#7C5893" fill-opacity="0.48" stroke="None">
<path d="
M 201.00 117.00 
C 202.01 116.80 203.30 116.74 205.00 116.00
C 203.56 116.38 202.40 116.53 201.00 117.00 Z"/>
</g>
<g fill="#725289" fill-opacity="0.59" stroke="None">
<path d="
M 176.00 130.00 
C 176.53 129.51 177.37 129.27 178.00 129.00
C 182.46 127.07 186.02 123.49 190.00 121.00
C 185.21 123.24 179.60 126.24 176.00 130.00 Z"/>
</g>
<g fill="#604297" fill-opacity="0.98" stroke="None">
<path d="
M 176.00 130.00 
C 169.05 136.48 162.14 144.59 157.00 152.00
C 156.19 154.60 154.14 156.86 153.00 159.00
C 150.10 166.39 146.78 174.02 146.00 182.00
C 146.00 183.10 146.12 185.81 146.00 187.00
C 146.00 188.67 146.00 190.33 146.00 192.00
C 146.00 200.35 145.98 209.41 145.00 217.00
C 144.95 219.13 144.16 221.57 144.00 223.00
C 144.00 230.83 143.17 239.99 145.00 247.00
C 146.45 237.91 151.76 230.07 156.00 222.00
C 156.89 219.89 158.25 217.35 161.00 215.00
C 164.01 212.43 166.94 209.42 170.00 207.00
C 174.44 202.29 179.91 197.64 187.00 196.00
C 187.98 195.77 189.74 196.55 190.00 195.00
C 190.08 194.51 190.00 194.00 190.00 194.00
C 189.28 188.02 179.94 179.06 186.00 174.00
C 182.03 168.54 174.17 166.11 175.00 157.00
C 174.13 155.75 172.04 159.84 170.00 157.00
C 170.29 154.81 172.21 155.13 174.00 154.00
C 172.96 149.73 169.53 149.55 169.00 154.00
C 161.91 145.79 168.56 136.75 178.00 129.00
C 177.37 129.27 176.53 129.51 176.00 130.00 Z"/>
</g>
<g fill="#756294" fill-opacity="0.43" stroke="None">
<path d="
M 163.00 142.00 
C 166.78 137.91 171.78 134.60 175.00 130.00
C 170.66 132.12 165.98 138.22 163.00 142.00 Z"/>
</g>
<g fill="#604584" fill-opacity="0.77" stroke="None">
<path d="
M 163.00 142.00 
C 161.48 143.92 160.18 145.84 159.00 148.00
C 158.31 149.27 157.87 150.86 157.00 152.00
C 162.14 144.59 169.05 136.48 176.00 130.00
C 176.00 130.00 175.40 129.80 175.00 130.00
C 171.78 134.60 166.78 137.91 163.00 142.00 Z"/>
</g>
<g fill="#FFFFFF" fill-opacity="0.01" stroke="None">
<path d="
M 163.00 140.00 
C 165.62 137.16 169.11 133.67 172.00 131.00
C 168.73 133.58 165.62 136.68 163.00 140.00 Z"/>
</g>
<g fill="#8977A3" fill-opacity="0.38" stroke="None">
<path d="
M 156.00 152.00 
C 156.12 151.78 157.00 152.00 157.00 152.00
C 157.87 150.86 158.31 149.27 159.00 148.00
C 158.02 149.34 156.91 150.35 156.00 152.00 Z"/>
</g>
<g fill="#736192" fill-opacity="0.58" stroke="None">
<path d="
M 153.00 159.00 
C 154.14 156.86 156.19 154.60 157.00 152.00
C 157.00 152.00 156.12 151.78 156.00 152.00
C 154.73 154.29 153.92 156.65 153.00 159.00 Z"/>
</g>
<g fill="#9A5C90" fill-opacity="0.58" stroke="None">
<path d="
M 361.00 158.00 
C 360.76 158.47 360.10 159.48 360.00 160.00
C 361.98 158.10 362.70 156.29 364.00 154.00
C 362.94 155.37 361.89 156.24 361.00 158.00 Z"/>
</g>
<g fill="#B784B1" fill-opacity="0.35" stroke="None">
<path d="
M 344.00 176.00 
C 349.53 173.01 357.70 167.38 360.00 161.00
C 354.88 165.90 349.90 171.99 344.00 176.00 Z"/>
</g>
<g fill="#884D88" fill-opacity="0.61" stroke="None">
<path d="
M 327.00 182.00 
C 329.54 181.33 331.80 180.81 334.00 180.00
C 331.18 180.62 329.32 180.53 327.00 182.00 Z"/>
</g>
<g fill="#574880" fill-opacity="0.75" stroke="None">
<path d="
M 146.00 186.00 
C 146.00 186.50 146.00 187.00 146.00 187.00
C 146.12 185.81 146.00 183.10 146.00 182.00
C 145.87 183.30 146.00 184.69 146.00 186.00 Z"/>
</g>
<g fill="#784385" fill-opacity="0.66" stroke="None">
<path d="
M 285.00 185.00 
C 277.91 185.00 266.67 185.10 260.00 186.00 C 253.33 186.90 239.29 182.57 235.00 187.00
C 234.75 187.26 235.00 188.00 235.00 188.00
C 236.67 188.00 238.33 188.00 240.00 188.00
C 255.47 186.35 272.79 187.00 289.00 187.00
C 292.08 186.70 296.25 186.00 300.00 186.00
C 302.67 186.00 305.33 186.00 308.00 186.00
C 309.00 186.00 310.00 186.00 311.00 186.00
C 315.04 185.11 320.74 184.44 325.00 183.00
C 312.94 183.56 298.56 185.00 285.00 185.00 Z"/>
</g>
<g fill="#8375A0" fill-opacity="0.36" stroke="None">
<path d="
M 145.00 188.00 
C 145.00 189.33 145.00 190.67 145.00 192.00
C 145.27 191.75 146.00 192.00 146.00 192.00
C 146.00 190.33 146.00 188.67 146.00 187.00
C 146.00 187.00 146.00 186.50 146.00 186.00
C 146.00 186.00 145.34 185.77 145.00 186.00
C 145.00 186.50 145.00 187.50 145.00 188.00 Z"/>
</g>
<g fill="#A579AD" fill-opacity="0.33" stroke="None">
<path d="
M 289.00 187.00 
C 291.00 187.00 293.00 187.00 295.00 187.00
C 296.67 187.00 298.33 187.00 300.00 187.00
C 299.75 186.75 300.00 186.00 300.00 186.00
C 296.25 186.00 292.08 186.70 289.00 187.00 Z"/>
</g>
<g fill="#DEBBE1" fill-opacity="0.11" stroke="None">
<path d="
M 300.00 187.00 
C 300.50 187.00 301.00 187.00 301.00 187.00
C 303.32 187.00 305.68 187.13 308.00 187.00
C 308.07 186.99 308.00 186.00 308.00 186.00
C 305.33 186.00 302.67 186.00 300.00 186.00
C 300.00 186.00 299.75 186.75 300.00 187.00 Z"/>
</g>
<g fill="#FFFFFF" fill-opacity="0.01" stroke="None">
<path d="
M 308.00 187.00 
C 309.58 186.91 310.97 186.21 312.00 186.00
C 312.00 186.00 311.50 186.00 311.00 186.00
C 310.00 186.00 309.00 186.00 308.00 186.00
C 308.00 186.00 308.07 186.99 308.00 187.00 Z"/>
</g>
<g fill="#6F4985" fill-opacity="0.41" stroke="None">
<path d="
M 226.00 188.00 
C 226.49 188.06 227.00 188.00 227.00 188.00
C 229.33 188.00 231.67 188.00 234.00 188.00
C 234.50 188.00 235.00 188.00 235.00 188.00
C 235.00 188.00 234.75 187.26 235.00 187.00
C 231.92 187.30 228.53 187.55 226.00 188.00 Z"/>
</g>
<g fill="#D1B5DD" fill-opacity="0.13" stroke="None">
<path d="
M 240.00 188.00 
C 247.33 188.00 254.67 188.00 262.00 188.00
C 272.98 188.00 284.02 188.31 295.00 188.00
C 295.04 188.00 295.00 187.00 295.00 187.00
C 293.00 187.00 291.00 187.00 289.00 187.00
C 272.79 187.00 255.47 186.35 240.00 188.00 Z"/>
</g>
<g fill="#FFFFFF" fill-opacity="0.01" stroke="None">
<path d="
M 295.00 188.00 
C 297.09 187.94 299.54 187.16 301.00 187.00
C 301.00 187.00 300.50 187.00 300.00 187.00
C 298.33 187.00 296.67 187.00 295.00 187.00
C 295.00 187.00 295.04 188.00 295.00 188.00 Z"/>
</g>
<g fill="#FFFFFF" fill-opacity="0.02" stroke="None">
<path d="
M 144.00 195.00 
C 144.00 194.96 145.00 195.00 145.00 195.00
C 145.00 194.00 145.00 193.00 145.00 192.00
C 145.00 190.67 145.00 189.33 145.00 188.00
C 144.07 190.18 144.06 192.21 144.00 195.00 Z"/>
</g>
<g fill="#6D4C8D" fill-opacity="0.63" stroke="None">
<path d="
M 198.00 193.00 
C 198.50 193.00 199.00 193.00 199.00 193.00
C 199.00 193.00 199.50 192.97 200.00 193.00
C 203.00 190.56 209.88 189.55 214.00 190.00
C 214.00 190.00 214.51 189.94 215.00 190.00
C 215.26 189.88 215.65 189.11 216.00 189.00
C 212.99 188.59 198.98 187.43 198.00 193.00 Z"/>
</g>
<g fill="#AE92B6" fill-opacity="0.13" stroke="None">
<path d="
M 222.00 189.00 
C 223.67 189.00 225.33 189.00 227.00 189.00
C 227.15 188.95 227.00 188.00 227.00 188.00
C 227.00 188.00 226.49 188.06 226.00 188.00
C 224.15 187.76 223.22 188.63 222.00 189.00 Z"/>
</g>
<g fill="#F1D2F7" fill-opacity="0.04" stroke="None">
<path d="
M 227.00 189.00 
C 229.33 189.00 231.67 189.00 234.00 189.00
C 234.07 188.99 234.00 188.00 234.00 188.00
C 231.67 188.00 229.33 188.00 227.00 188.00
C 227.00 188.00 227.15 188.95 227.00 189.00 Z"/>
</g>
<g fill="#FFFFFF" fill-opacity="0.01" stroke="None">
<path d="
M 234.00 189.00 
C 243.34 189.00 253.36 188.84 262.00 188.00
C 254.67 188.00 247.33 188.00 240.00 188.00
C 238.33 188.00 236.67 188.00 235.00 188.00
C 235.00 188.00 234.50 188.00 234.00 188.00
C 234.00 188.00 234.07 188.99 234.00 189.00 Z"/>
</g>
<g fill="#D1B5DC" fill-opacity="0.06" stroke="None">
<path d="
M 215.00 190.00 
C 217.14 190.26 218.48 189.55 220.00 189.00
C 218.86 189.00 217.08 188.67 216.00 189.00
C 215.65 189.11 215.26 189.88 215.00 190.00 Z"/>
</g>
<g fill="#DDCDE8" fill-opacity="0.07" stroke="None">
<path d="
M 200.00 193.00 
C 204.51 193.30 210.30 191.61 214.00 190.00
C 209.88 189.55 203.00 190.56 200.00 193.00 Z"/>
</g>
<g fill="#625188" fill-opacity="0.69" stroke="None">
<path d="
M 145.00 195.00 
C 145.00 200.00 145.00 205.00 145.00 210.00
C 145.00 212.33 145.06 214.67 145.00 217.00
C 145.98 209.41 146.00 200.35 146.00 192.00
C 146.00 192.00 145.27 191.75 145.00 192.00
C 145.00 193.00 145.00 194.00 145.00 195.00 Z"/>
</g>
<g fill="#6E558C" fill-opacity="0.56" stroke="None">
<path d="
M 190.00 194.00 
C 190.00 194.00 190.08 194.51 190.00 195.00
C 192.17 194.31 194.11 193.90 196.00 193.00
C 194.10 192.98 191.60 193.10 190.00 194.00 Z"/>
</g>
<g fill="#E4DEEF" fill-opacity="0.10" stroke="None">
<path d="
M 190.00 195.00 
C 189.74 196.55 187.98 195.77 187.00 196.00
C 181.33 198.07 174.89 203.14 170.00 207.00
C 166.94 209.42 164.01 212.43 161.00 215.00
C 159.25 217.01 157.29 219.91 156.00 222.00
C 151.76 230.07 146.45 237.91 145.00 247.00
C 143.17 239.99 144.00 230.83 144.00 223.00
C 144.00 220.67 144.00 218.33 144.00 216.00
C 143.19 224.32 141.11 235.13 142.01 243.99 C 142.91 252.86 149.92 237.84 151.74 232.74 C 153.56 227.65 159.31 220.30 163.25 215.25 C 167.19 210.19 173.84 205.99 179.25 202.25 C 184.67 198.52 193.32 195.97 199.00 193.00
C 199.00 193.00 198.50 193.00 198.00 193.00
C 197.50 193.00 196.50 193.00 196.00 193.00
C 194.11 193.90 192.17 194.31 190.00 195.00 Z"/>
</g>
<g fill="#E5D8F7" fill-opacity="0.09" stroke="None">
<path d="
M 144.00 210.00 
C 144.02 209.90 145.00 210.00 145.00 210.00
C 145.00 205.00 145.00 200.00 145.00 195.00
C 145.00 195.00 144.00 194.96 144.00 195.00
C 143.90 200.00 144.00 205.00 144.00 210.00 Z"/>
</g>
<g fill="#67548D" fill-opacity="0.65" stroke="None">
<path d="
M 170.00 207.00 
C 174.89 203.14 181.33 198.07 187.00 196.00
C 179.91 197.64 174.44 202.29 170.00 207.00 Z"/>
</g>
<g fill="#B0A1C7" fill-opacity="0.22" stroke="None">
<path d="
M 144.00 216.00 
C 144.00 218.33 144.00 220.67 144.00 223.00
C 144.16 221.57 144.95 219.13 145.00 217.00
C 145.06 214.67 145.00 212.33 145.00 210.00
C 145.00 210.00 144.02 209.90 144.00 210.00
C 144.00 212.00 144.00 214.00 144.00 216.00 Z"/>
</g>
<g fill="#5E4E89" fill-opacity="0.73" stroke="None">
<path d="
M 156.00 222.00 
C 157.29 219.91 159.25 217.01 161.00 215.00
C 158.25 217.35 156.89 219.89 156.00 222.00 Z"/>
</g>
<g fill="#FFFFFF" fill-opacity="0.02" stroke="None">
<path d="
M 231.00 222.00 
C 235.67 222.00 240.33 222.00 245.00 222.00
C 248.00 222.00 251.00 222.00 254.00 222.00
C 253.96 222.00 254.00 221.00 254.00 221.00
C 246.30 221.00 238.01 221.32 231.00 222.00 Z"/>
</g>
<g fill="#E1FCF8" fill-opacity="0.04" stroke="None">
<path d="
M 254.00 222.00 
C 261.75 222.00 271.44 221.92 279.00 222.00 C 286.56 222.08 298.22 221.80 305.00 222.00 C 311.78 222.20 327.21 219.24 323.00 228.00
C 322.80 228.41 323.07 229.51 323.00 230.00
C 322.75 231.79 322.03 233.06 322.00 235.00
C 321.99 235.50 322.00 236.00 322.00 236.00
C 324.74 225.27 325.68 219.85 313.00 221.00 C 300.32 222.15 294.35 220.55 283.00 221.00 C 271.65 221.45 264.93 221.00 254.00 221.00
C 254.00 221.00 253.96 222.00 254.00 222.00 Z"/>
</g>
<g fill="#CFF1EE" fill-opacity="0.10" stroke="None">
<path d="
M 143.00 318.00 
C 143.00 317.96 144.00 318.00 144.00 318.00
C 144.00 310.33 144.00 302.67 144.00 295.00
C 144.00 291.13 144.67 287.52 145.00 284.00
C 147.00 262.66 154.07 245.84 173.00 234.00
C 180.24 229.47 188.44 226.54 197.00 225.00
C 199.08 224.63 200.86 224.28 203.00 224.00
C 206.75 223.51 210.23 223.20 214.00 223.00
C 224.27 222.44 235.45 222.92 245.00 222.00
C 240.33 222.00 235.67 222.00 231.00 222.00
C 204.37 222.00 178.61 222.80 159.75 242.75 C 140.90 262.71 143.00 291.38 143.00 318.00 Z"/>
</g>
<g fill="#73BC96" fill-opacity="0.62" stroke="None">
<path d="
M 214.00 223.00 
C 215.31 223.09 218.02 223.94 220.00 224.00
C 240.30 224.57 260.69 224.00 281.00 224.00
C 294.67 224.00 308.33 224.00 322.00 224.00
C 322.28 225.28 321.24 227.50 323.00 228.00
C 327.21 219.24 311.78 222.20 305.00 222.00 C 298.22 221.80 286.56 222.08 279.00 222.00 C 271.44 221.92 261.75 222.00 254.00 222.00
C 251.00 222.00 248.00 222.00 245.00 222.00
C 235.45 222.92 224.27 222.44 214.00 223.00 Z"/>
</g>
<g fill="#68C3B1" fill-opacity="0.98" stroke="None">
<path d="
M 203.00 224.00 
C 202.77 224.06 202.53 225.77 200.96 225.96 C 199.39 226.16 197.70 225.00 197.00 225.00
C 188.44 226.54 180.24 229.47 173.00 234.00
C 174.01 233.90 176.40 236.56 178.00 236.00
C 176.72 238.92 176.02 238.19 179.00 240.00
C 173.98 244.49 178.27 253.70 177.98 259.02 C 177.68 264.35 173.85 273.29 183.00 272.00
C 179.96 273.67 173.62 272.12 174.00 278.00
C 176.24 276.26 178.93 276.31 182.00 278.00
C 180.99 281.25 177.03 279.08 175.00 281.00
C 177.43 283.84 176.68 286.98 175.00 290.00
C 183.61 286.06 190.08 283.00 200.00 283.00
C 201.67 283.00 203.33 283.00 205.00 283.00
C 207.12 282.77 210.21 282.00 213.00 282.00
C 224.66 282.00 236.34 282.23 248.00 282.00
C 234.99 280.14 219.88 280.50 208.00 276.00
C 210.58 273.28 215.85 273.51 219.00 274.00
C 212.38 268.10 219.65 260.91 218.00 253.00 C 216.35 245.09 218.52 241.54 215.00 234.00
C 218.13 231.84 219.06 227.81 220.00 224.00
C 218.02 223.94 215.31 223.09 214.00 223.00
C 210.23 223.20 206.75 223.51 203.00 224.00 Z"/>
</g>
<g fill="#7ABFAD" fill-opacity="0.70" stroke="None">
<path d="
M 197.00 225.00 
C 197.70 225.00 199.39 226.16 200.96 225.96 C 202.53 225.77 202.77 224.06 203.00 224.00
C 200.86 224.28 199.08 224.63 197.00 225.00 Z"/>
</g>
<g fill="#59BD8D" fill-opacity="1.00" stroke="None">
<path d="
M 248.00 282.00 
C 254.43 281.87 260.40 281.00 267.00 281.00
C 267.15 280.97 268.21 279.00 270.01 279.01 C 271.81 279.03 274.06 280.00 275.00 280.00
C 277.54 279.68 280.47 278.55 283.00 278.00
C 282.03 273.26 277.12 277.01 274.00 277.00
C 277.28 275.29 273.81 275.21 273.00 273.00
C 276.09 271.11 275.13 264.34 275.00 260.00 C 274.88 255.65 280.81 248.16 273.00 247.00
C 274.01 244.96 275.68 244.60 277.00 244.00
C 275.35 236.55 279.28 231.33 274.00 225.00
C 276.20 224.48 279.62 226.14 281.00 224.00
C 260.69 224.00 240.30 224.57 220.00 224.00
C 219.06 227.81 218.13 231.84 215.00 234.00
C 218.52 241.54 216.35 245.09 218.00 253.00 C 219.65 260.91 212.38 268.10 219.00 274.00
C 215.85 273.51 210.58 273.28 208.00 276.00
C 219.88 280.50 234.99 280.14 248.00 282.00 Z"/>
</g>
<g fill="#3BB66B" fill-opacity="0.98" stroke="None">
<path d="
M 283.00 278.00 
C 303.57 273.52 315.98 256.60 321.00 237.00
C 321.41 233.82 320.46 232.76 323.00 230.00
C 323.07 229.51 322.80 228.41 323.00 228.00
C 321.24 227.50 322.28 225.28 322.00 224.00
C 308.33 224.00 294.67 224.00 281.00 224.00
C 279.62 226.14 276.20 224.48 274.00 225.00
C 279.28 231.33 275.35 236.55 277.00 244.00
C 275.68 244.60 274.01 244.96 273.00 247.00
C 280.81 248.16 274.88 255.65 275.00 260.00 C 275.13 264.34 276.09 271.11 273.00 273.00
C 273.81 275.21 277.28 275.29 274.00 277.00
C 277.12 277.01 282.03 273.26 283.00 278.00 Z"/>
</g>
<g fill="#45AB6C" fill-opacity="0.65" stroke="None">
<path d="
M 321.00 237.00 
C 321.27 235.93 321.71 235.74 322.00 235.00
C 322.03 233.06 322.75 231.79 323.00 230.00
C 320.46 232.76 321.41 233.82 321.00 237.00 Z"/>
</g>
<g fill="#6CC7CE" fill-opacity="0.98" stroke="None">
<path d="
M 145.00 284.00 
C 146.25 296.89 146.00 311.39 146.00 325.00
C 146.15 324.45 147.75 323.48 148.00 323.00
C 148.03 322.50 148.00 322.00 148.00 322.00
C 148.12 320.09 149.24 319.36 150.00 318.00
C 151.52 314.30 153.74 310.39 156.00 307.00
C 156.23 306.65 156.00 306.00 156.00 306.00
C 156.65 300.63 170.62 292.00 175.00 290.00
C 176.68 286.98 177.43 283.84 175.00 281.00
C 177.03 279.08 180.99 281.25 182.00 278.00
C 178.93 276.31 176.24 276.26 174.00 278.00
C 173.62 272.12 179.96 273.67 183.00 272.00
C 173.85 273.29 177.68 264.35 177.98 259.02 C 178.27 253.70 173.98 244.49 179.00 240.00
C 176.02 238.19 176.72 238.92 178.00 236.00
C 176.40 236.56 174.01 233.90 173.00 234.00
C 154.07 245.84 147.00 262.66 145.00 284.00 Z"/>
</g>
<g fill="#B6E6C7" fill-opacity="0.09" stroke="None">
<path d="
M 321.00 237.00 
C 315.98 256.60 303.57 273.52 283.00 278.00
C 280.47 278.55 277.54 279.68 275.00 280.00
C 272.56 280.31 270.94 280.22 269.00 281.00
C 269.50 281.00 270.50 280.97 271.00 281.00
C 294.66 282.48 321.42 260.35 322.00 236.00
C 322.00 236.00 321.99 235.50 322.00 235.00
C 321.71 235.74 321.27 235.93 321.00 237.00 Z"/>
</g>
<g fill="#6BB68E" fill-opacity="0.57" stroke="None">
<path d="
M 267.00 281.00 
C 267.50 281.00 268.50 281.00 269.00 281.00
C 270.94 280.22 272.56 280.31 275.00 280.00
C 274.06 280.00 271.81 279.03 270.01 279.01 C 268.21 279.00 267.15 280.97 267.00 281.00 Z"/>
</g>
<g fill="#ECFCEF" fill-opacity="0.06" stroke="None">
<path d="
M 248.00 282.00 
C 236.34 282.23 224.66 282.00 213.00 282.00
C 213.04 282.00 213.00 283.00 213.00 283.00
C 213.00 293.67 213.00 304.33 213.00 315.00
C 213.00 316.33 213.00 317.67 213.00 319.00
C 215.33 307.99 213.33 294.83 214.00 283.00
C 233.09 283.41 252.94 283.18 271.00 281.00
C 270.50 280.97 269.50 281.00 269.00 281.00
C 268.50 281.00 267.50 281.00 267.00 281.00
C 260.40 281.00 254.43 281.87 248.00 282.00 Z"/>
</g>
<g fill="#A39E7E" fill-opacity="0.93" stroke="None">
<path d="
M 205.00 283.00 
C 207.33 283.00 209.67 283.00 212.00 283.00
C 212.50 283.00 213.00 283.00 213.00 283.00
C 213.00 283.00 213.04 282.00 213.00 282.00
C 210.21 282.00 207.12 282.77 205.00 283.00 Z"/>
</g>
<g fill="#90B39E" fill-opacity="1.00" stroke="None">
<path d="
M 175.00 290.00 
C 170.62 292.00 156.65 300.63 156.00 306.00
C 162.13 301.71 166.38 295.38 173.00 292.00
C 174.52 291.22 176.38 290.65 178.00 290.00
C 179.41 289.24 180.04 288.12 182.00 288.00
C 182.50 287.97 183.00 288.00 183.00 288.00
C 185.83 286.84 187.92 286.40 191.00 286.00
C 193.43 285.43 197.61 283.35 200.00 283.00
C 190.08 283.00 183.61 286.06 175.00 290.00 Z"/>
</g>
<g fill="#9E7651" fill-opacity="1.00" stroke="None">
<path d="
M 191.00 286.00 
C 198.06 285.08 204.67 284.66 212.00 284.00
C 212.00 283.50 212.00 283.00 212.00 283.00
C 209.67 283.00 207.33 283.00 205.00 283.00
C 203.33 283.00 201.67 283.00 200.00 283.00
C 197.61 283.35 193.43 285.43 191.00 286.00 Z"/>
</g>
<g fill="#E1AF9A" fill-opacity="0.35" stroke="None">
<path d="
M 212.00 284.00 
C 212.00 294.33 212.00 304.67 212.00 315.00
C 212.00 314.96 213.00 315.00 213.00 315.00
C 213.00 304.33 213.00 293.67 213.00 283.00
C 213.00 283.00 212.50 283.00 212.00 283.00
C 212.00 283.00 212.00 283.50 212.00 284.00 Z"/>
</g>
<g fill="#7FC6CB" fill-opacity="0.79" stroke="None">
<path d="
M 144.00 295.00 
C 144.96 304.95 145.00 316.35 145.00 327.00
C 145.25 326.75 146.00 327.00 146.00 327.00
C 146.23 326.84 146.00 325.50 146.00 325.00
C 146.00 311.39 146.25 296.89 145.00 284.00
C 144.67 287.52 144.00 291.13 144.00 295.00 Z"/>
</g>
<g fill="#CF5727" fill-opacity="1.00" stroke="None">
<path d="
M 191.00 286.00 
C 187.92 286.40 185.83 286.84 183.00 288.00
C 181.30 292.78 170.29 293.12 167.25 298.25 C 164.20 303.37 157.70 306.77 155.23 312.23 C 152.76 317.69 147.31 323.37 146.00 329.00
C 146.00 330.33 146.00 331.67 146.00 333.00
C 146.14 332.44 147.79 331.19 147.00 330.00
C 148.69 334.21 149.26 331.50 149.00 328.00
C 150.33 330.94 151.02 333.11 151.00 328.00
C 154.12 327.52 157.19 328.88 158.00 332.00
C 169.99 324.98 188.90 336.57 200.00 329.00
C 203.15 330.19 205.86 331.28 209.00 329.00
C 208.94 331.12 208.77 333.23 210.00 335.00
C 210.11 335.20 211.00 335.00 211.00 335.00
C 211.26 334.88 211.95 334.23 212.00 334.00
C 211.43 327.78 212.00 321.25 212.00 315.00
C 212.00 304.67 212.00 294.33 212.00 284.00
C 204.67 284.66 198.06 285.08 191.00 286.00 Z"/>
</g>
<g fill="#9C9276" fill-opacity="1.00" stroke="None">
<path d="
M 178.00 290.00 
C 179.67 289.34 180.72 289.32 182.00 288.00
C 180.04 288.12 179.41 289.24 178.00 290.00 Z"/>
</g>
<g fill="#A96A4E" fill-opacity="1.00" stroke="None">
<path d="
M 178.00 290.00 
C 176.38 290.65 174.52 291.22 173.00 292.00
C 167.37 295.61 162.30 304.37 156.00 307.00
C 153.74 310.39 151.52 314.30 150.00 318.00
C 149.32 319.66 149.32 320.72 148.00 322.00
C 148.00 322.00 148.03 322.50 148.00 323.00
C 147.88 324.89 146.57 325.65 146.00 327.00
C 146.23 327.16 146.00 328.50 146.00 329.00
C 147.31 323.37 152.76 317.69 155.23 312.23 C 157.70 306.77 164.20 303.37 167.25 298.25 C 170.29 293.12 181.30 292.78 183.00 288.00
C 183.00 288.00 182.50 287.97 182.00 288.00
C 180.72 289.32 179.67 289.34 178.00 290.00 Z"/>
</g>
<g fill="#9B8D78" fill-opacity="1.00" stroke="None">
<path d="
M 156.00 306.00 
C 156.00 306.00 156.23 306.65 156.00 307.00
C 162.30 304.37 167.37 295.61 173.00 292.00
C 166.38 295.38 162.13 301.71 156.00 306.00 Z"/>
</g>
<g fill="#A6DCDF" fill-opacity="0.40" stroke="None">
<path d="
M 144.00 318.00 
C 144.00 321.60 144.36 325.08 145.00 328.00
C 145.00 327.50 145.00 327.00 145.00 327.00
C 145.00 316.35 144.96 304.95 144.00 295.00
C 144.00 302.67 144.00 310.33 144.00 318.00 Z"/>
</g>
<g fill="#F9D4BF" fill-opacity="0.15" stroke="None">
<path d="
M 212.00 334.00 
C 212.01 333.93 213.00 334.00 213.00 334.00
C 213.10 329.00 213.00 324.00 213.00 319.00
C 213.00 317.67 213.00 316.33 213.00 315.00
C 213.00 315.00 212.00 314.96 212.00 315.00
C 212.00 321.25 211.43 327.78 212.00 334.00 Z"/>
</g>
<g fill="#FCFBFA" fill-opacity="0.03" stroke="None">
<path d="
M 144.00 351.00 
C 144.00 344.30 143.70 336.94 145.00 331.00
C 145.00 330.00 145.00 329.00 145.00 328.00
C 144.36 325.08 144.00 321.60 144.00 318.00
C 144.00 318.00 143.00 317.96 143.00 318.00
C 143.00 328.98 143.01 340.72 144.00 351.00 Z"/>
</g>
<g fill="#A18C8D" fill-opacity="1.00" stroke="None">
<path d="
M 148.00 322.00 
C 149.32 320.72 149.32 319.66 150.00 318.00
C 149.24 319.36 148.12 320.09 148.00 322.00 Z"/>
</g>
<g fill="#9F8B76" fill-opacity="1.00" stroke="None">
<path d="
M 146.00 325.00 
C 146.00 325.50 146.23 326.84 146.00 327.00
C 146.57 325.65 147.88 324.89 148.00 323.00
C 147.75 323.48 146.15 324.45 146.00 325.00 Z"/>
</g>
<g fill="#C87D4A" fill-opacity="0.78" stroke="None">
<path d="
M 145.00 328.00 
C 145.00 329.00 145.00 330.00 145.00 331.00
C 145.00 345.00 145.00 359.00 145.00 373.00
C 145.00 375.67 145.00 378.33 145.00 381.00
C 145.00 380.96 146.00 381.00 146.00 381.00
C 146.00 371.33 146.00 361.67 146.00 352.00
C 146.00 345.67 146.00 339.33 146.00 333.00
C 146.00 331.67 146.00 330.33 146.00 329.00
C 146.00 328.50 146.23 327.16 146.00 327.00
C 146.00 327.00 145.25 326.75 145.00 327.00
C 145.00 327.00 145.00 327.50 145.00 328.00 Z"/>
</g>
<g fill="#DC6926" fill-opacity="1.00" stroke="None">
<path d="
M 146.00 333.00 
C 146.00 339.33 146.00 345.67 146.00 352.00
C 146.19 353.95 147.93 357.34 147.00 360.00
C 150.43 358.42 149.80 359.31 154.00 358.00
C 156.62 363.61 168.53 358.15 176.00 360.00 C 183.47 361.85 194.66 356.53 200.00 362.00
C 201.81 359.57 203.41 360.20 205.00 358.00
C 206.27 358.56 206.25 360.85 208.00 361.00
C 209.24 356.16 210.00 351.67 210.00 346.00
C 210.00 342.38 209.67 338.60 210.00 335.00
C 208.77 333.23 208.94 331.12 209.00 329.00
C 205.86 331.28 203.15 330.19 200.00 329.00
C 188.90 336.57 169.99 324.98 158.00 332.00
C 157.19 328.88 154.12 327.52 151.00 328.00
C 151.02 333.11 150.33 330.94 149.00 328.00
C 149.26 331.50 148.69 334.21 147.00 330.00
C 147.79 331.19 146.14 332.44 146.00 333.00 Z"/>
</g>
<g fill="#FBC5A4" fill-opacity="0.20" stroke="None">
<path d="
M 144.00 351.00 
C 144.00 358.33 144.00 365.67 144.00 373.00
C 144.00 372.96 145.00 373.00 145.00 373.00
C 145.00 359.00 145.00 345.00 145.00 331.00
C 143.70 336.94 144.00 344.30 144.00 351.00 Z"/>
</g>
<g fill="#ECB58D" fill-opacity="0.31" stroke="None">
<path d="
M 211.00 335.00 
C 210.58 337.94 211.36 341.05 211.00 344.00
C 211.20 343.76 212.00 344.00 212.00 344.00
C 212.00 343.00 212.00 342.00 212.00 341.00
C 212.00 338.74 211.70 336.24 212.00 334.00
C 211.95 334.23 211.26 334.88 211.00 335.00 Z"/>
</g>
<g fill="#FEFFF9" fill-opacity="0.01" stroke="None">
<path d="
M 212.00 341.00 
C 212.44 338.99 212.95 336.66 213.00 334.00
C 213.00 334.00 212.01 333.93 212.00 334.00
C 211.70 336.24 212.00 338.74 212.00 341.00 Z"/>
</g>
<g fill="#C27241" fill-opacity="0.77" stroke="None">
<path d="
M 210.00 346.00 
C 210.13 345.50 210.88 344.97 211.00 344.00
C 211.36 341.05 210.58 337.94 211.00 335.00
C 211.00 335.00 210.11 335.20 210.00 335.00
C 209.67 338.60 210.00 342.38 210.00 346.00 Z"/>
</g>
<g fill="#F8DFB5" fill-opacity="0.11" stroke="None">
<path d="
M 210.00 346.00 
C 210.00 351.67 209.24 356.16 208.00 361.00
C 205.31 371.54 202.71 380.98 196.00 390.00
C 185.19 404.53 166.09 412.98 149.00 415.00
C 147.33 415.20 146.29 416.76 145.00 414.00
C 142.55 410.65 145.84 402.47 145.00 398.00 C 144.16 393.53 145.00 385.77 145.00 381.00
C 145.00 378.33 145.00 375.67 145.00 373.00
C 145.00 373.00 144.00 372.96 144.00 373.00
C 144.00 385.50 144.10 397.44 144.00 410.00 C 143.90 422.56 160.26 413.92 168.31 411.31 C 176.35 408.69 184.58 403.51 191.25 397.25 C 197.92 390.99 202.46 383.50 205.69 374.69 C 208.93 365.89 212.00 353.97 212.00 344.00
C 212.00 344.00 211.20 343.76 211.00 344.00
C 210.88 344.97 210.13 345.50 210.00 346.00 Z"/>
</g>
<g fill="#E68126" fill-opacity="0.99" stroke="None">
<path d="
M 146.00 381.00 
C 146.00 387.00 146.00 393.00 146.00 399.00
C 146.38 395.06 145.82 386.84 150.00 385.00
C 151.41 386.81 150.83 389.84 153.00 391.00
C 164.67 388.11 176.90 392.28 188.00 387.00
C 185.23 394.67 193.02 387.76 196.00 390.00
C 202.71 380.98 205.31 371.54 208.00 361.00
C 206.25 360.85 206.27 358.56 205.00 358.00
C 203.41 360.20 201.81 359.57 200.00 362.00
C 194.66 356.53 183.47 361.85 176.00 360.00 C 168.53 358.15 156.62 363.61 154.00 358.00
C 149.80 359.31 150.43 358.42 147.00 360.00
C 147.93 357.34 146.19 353.95 146.00 352.00
C 146.00 361.67 146.00 371.33 146.00 381.00 Z"/>
</g>
<g fill="#D59B49" fill-opacity="0.72" stroke="None">
<path d="
M 145.00 414.00 
C 145.84 415.15 147.79 414.90 149.00 415.00
C 148.40 414.84 147.22 413.23 146.00 414.00
C 146.00 409.00 146.00 404.00 146.00 399.00
C 146.00 393.00 146.00 387.00 146.00 381.00
C 146.00 381.00 145.00 380.96 145.00 381.00
C 145.00 385.77 144.16 393.53 145.00 398.00 C 145.84 402.47 142.55 410.65 145.00 414.00 Z"/>
</g>
<g fill="#E49628" fill-opacity="0.97" stroke="None">
<path d="
M 146.00 399.00 
C 146.00 404.00 146.00 409.00 146.00 414.00
C 147.22 413.23 148.40 414.84 149.00 415.00
C 166.09 412.98 185.19 404.53 196.00 390.00
C 193.02 387.76 185.23 394.67 188.00 387.00
C 176.90 392.28 164.67 388.11 153.00 391.00
C 150.83 389.84 151.41 386.81 150.00 385.00
C 145.82 386.84 146.38 395.06 146.00 399.00 Z"/>
</g>
<g fill="#D8B568" fill-opacity="0.31" stroke="None">
<path d="
M 149.00 415.00 
C 147.79 414.90 145.84 415.15 145.00 414.00
C 146.29 416.76 147.33 415.20 149.00 415.00 Z"/>
</g>
</svg>
